<?xml version="1.0" encoding="utf-8"?>
<!-- Generator: Adobe Illustrator 16.0.0, SVG Export Plug-In . SVG Version: 6.00 Build 0)  -->
<!DOCTYPE svg PUBLIC "-//W3C//DTD SVG 1.1//EN" "http://www.w3.org/Graphics/SVG/1.1/DTD/svg11.dtd">
<svg version="1.1" id="Layer_1" xmlns="http://www.w3.org/2000/svg" xmlns:xlink="http://www.w3.org/1999/xlink" x="0px" y="0px"
	 width="315px" height="125px" viewBox="0 0 315 125" enable-background="new 0 0 315 125" xml:space="preserve">
<path fill="#FFD027" d="M118.886,116.013c-0.606-1.891-1.782-3.569-2.911-5.182c-1.439-2.052-2.922-4.075-4.47-6.048
	c-1.517-1.937-3.278-3.583-3.974-6.018c-0.41-1.442-0.504-3.735,0.9-4.754c0.637-0.463,2.408-1.021,1.432-2.105
	c-0.512-0.568-1.225-0.911-1.736-1.498c-1.109-1.272-2.312-3.547-1.351-5.204c0.516-0.891,1.893-1.206,2.004-2.349
	c0.112-1.13-1.444-1.142-1.724-2.089c-0.682-2.304,2.469-2.343,2.906-4.059c0.257-1.003-0.892-1.495-1.619-1.886
	c-0.668-0.361-1.084-0.654-1.395-1.348c-0.428-0.957,0.023-1.699,0.229-2.617c0.234-1.057,0.297-2.168,0.044-3.229
	c-0.407-1.706-1.782-3.146-3.558-3.477c-0.976-0.183-2.033-0.534-2.982-0.843c-1.199-0.392-0.063-0.477,0.621-0.712
	c1.758-0.611,3.359-1.972,4.716-3.213c1.802-1.647,3.413-3.527,4.04-5.931c1.12-4.305-0.271-7.699-0.547-11.563
	c-0.246-3.437-0.32-6.852-0.291-10.294c0.016-1.635,0.008-3.261,0.064-4.893c0.072-2.097,0.412-4.158,0.799-6.214
	c0.739-3.929,1.531-8.653-1.79-11.889c-1.726-1.683-4.558-0.937-6.575-0.168c-1.848,0.701-3.52,1.549-5.27,2.446
	c-3.028,1.553-5.725,4.12-8.137,6.467c-2.645,2.575-4.916,5.49-7.011,8.524c-2.374,3.433-4.227,7.079-5.655,10.992
	c-0.947,2.586-1.746,5.223-2.587,7.843c-1.067,3.333-2.015,6.467-3.411,9.913c-0.304,0.748-0.581,1.507-0.857,2.266
	c-0.261,0.719-0.629,2.131-0.754,1.122c-0.117-0.945-0.48-2.146-1.527-2.406c-0.355-0.086-0.246-0.524-0.633-0.936
	c-0.279-0.295-0.586-0.486-0.976-0.57c-0.12-0.027-0.817,0.2-1.153,0.959c-0.285,0.639-0.414,0.272-0.771,0.639
	c-0.846,0.875-0.89,1.733-0.967,2.172c-0.083,0.471-0.234,0.266-0.303,0.072c-3.019-8.49-5.698-16.037-7.171-20.341
	c-2.255-6.595-3.774-9.587-6.905-14.418c-3.134-4.83-8.531-9.775-9.398-10.416c-7.316-5.408-9.738-5.586-12.116-6.304
	c-3.852-1.161-5.095,1.7-5.282,2.075c-0.428,0.854-2.039,3.095-1.209,7.548c1.412,7.579,1.209,13.475,1.232,15.011
	c0.082,5.056,0,8.151-0.904,13.738c-0.906,5.586-0.277,8.98,2.54,12.202c2.817,3.221,5.585,4.606,6.491,4.856
	c0.906,0.252,0.227,0.252-0.124,0.327c-3.403,0.729-3.901,1.259-4.379,1.459c-0.944,0.397-1.787,1.61-2.038,2.643
	c-0.734,3.011,0.301,4.251,0.251,4.807c-0.155,1.715-0.629,1.936-2.39,2.816c-1.37,0.687-1.359,1.761,0.201,2.896
	c0.73,0.529,1.283,0.654,1.484,1.936c0.047,0.303,0.303,1.057-0.806,1.687c-1.174,0.668-1.483,1.459-0.075,2.617
	c1.41,1.156,1.334,2.316,1.209,2.818c-0.765,3.054-2.5,4.099-3.246,4.631c-1.385,0.979-0.152,1.86,0.125,1.961
	c0.277,0.1,1.158,0.679,1.359,1.309c1.011,3.16-0.276,5.233-0.68,6.04c-0.609,1.217-1.887,2.188-4.026,4.729
	c-1.942,2.312-5.064,6.801-5.284,7.121c-0.703,1.031-1.812,2.893-1.938,3.774c-0.534,3.745,2.239,2.288,2.794,1.761
	c1.865-1.781,2.29-2.138,5.208-7.146c2.174-3.729,3.312-4.966,3.95-5.41c1.661-1.157,1.812-0.251,1.888,0.304
	c0.074,0.552-0.252,0.661,0.252,2.313c0.604,1.988,1.584,0.779,2.088,0.427c0.502-0.353,2.088-2.942,2.617-3.369
	c0.525-0.428,1.484-0.655,1.986-0.05c0.846,1.013,1.686,1.811,2.592,2.11c1.088,0.363,1.535,0.529,1.963-0.679
	c0.896-2.527,1.158-3.019,1.334-3.195c0.176-0.176,1.057-1.609,1.459-1.988c1.377-1.289,1.385-0.225,2.77-0.327
	c2.089-0.15,3.547-0.577,5.08-1.634c1.537-1.057,2.365-2.088,3.223-3.522c0.855-1.436,0.729-0.782,2.415-4.556
	c1.685-3.774,1.282-3.421,4.504-7.976c3.22-4.554,6.44-7.901,6.593-8.001c0.197-0.132,0.498-0.687,0.703,0.05
	c0.178,0.629,0.252,1.106,0.252,1.358c0,0.253-0.176,1.106-0.252,1.637c-0.074,0.526-0.326,1.761-0.68,4.101
	c-0.352,2.339-0.428,6.643,1.932,9.201c0.303,0.329,0.604,0.608,0.838,0.813c0.6,0.521,1.166,0.091,1.377-0.084
	c0.21-0.177,0.366-0.32,0.599-0.584c2.138-2.415,2.307-5.99,1.964-9.01c-0.16-1.409-0.37-2.811-0.567-4.213
	c-0.062-0.44-0.13-0.879-0.167-1.323c-0.053-0.608,0.184-0.999,0.312-1.587c0.132-0.614,0.476-0.116,0.72,0.146
	c0.457,0.488,0.893,0.995,1.325,1.503c0.666,0.782,1.319,1.573,1.931,2.398c1.742,2.356,3.424,4.778,4.893,7.316
	c2.511,4.336,3.572,10.362,8.4,12.874c0.98,0.51,2.072,0.867,3.176,0.965c0.734,0.063,1.633-0.346,2.312-0.068
	c0.938,0.384,1.671,1.579,2.184,2.401c0.509,0.813,0.771,1.781,1.026,2.697c0.263,0.942,0.455,1.834,1.609,1.688
	c0.973-0.12,1.882-0.805,2.529-1.5c0.59-0.634,1.312-1.527,2.242-0.909c0.727,0.484,1.207,1.269,1.653,2.004
	c0.736,1.212,2.836,3.911,3.46,1.18c0.188-0.825,0.012-1.985,0.424-2.73c0.562-1.015,2.16,0.86,2.497,1.242
	c0.991,1.125,1.821,2.569,2.499,3.901c0.698,1.371,1.572,2.656,2.333,3.99c0.719,1.262,1.61,2.504,2.669,3.509
	c0.706,0.67,1.909,1.843,2.957,1.084C119.274,118.003,119.137,116.799,118.886,116.013"/>
<path fill="#FFFFFF" d="M95.421,64.619c-0.571,0.75-1.86,0.77-2.689,1.025c-1.071,0.334-2.276,0.709-3.092,1.511
	c-0.825,0.813-0.631,1.639-0.249,2.6c0.244,0.614,0.537,1.226,0.95,1.746c0.372,0.465,0.746,1.001,0.335,1.567
	c-0.707,0.977-1.897,1.036-2.9,1.513c-0.865,0.416-2.352,1.248-0.843,1.939c0.955,0.438,2.463,0.8,2.327,2.183
	c-0.119,1.216-1.888,1.898-2.556,2.805c-0.612,0.829-0.646,1.768,0.095,2.515c1.807,1.823,0.393,4.208-1.081,5.718
	c-1.024,1.048-2.258,1.865-3.528,2.583c-0.592,0.337-1.567,1.26-1.973,0.512c-0.563-1.036-1.045-2.083-1.447-3.192
	c-0.234-0.643-0.831-1.309-0.079-1.677c1.891-0.928,4.429-2.361,4.633-4.729c0.169-1.987-3.326-3.779-1.096-5.785
	c0.481-0.434,1.556-0.899,1.825-1.528c0.354-0.821-0.068-1.793-0.785-2.259c-0.236-0.152-1.609-0.486-1.271-0.916
	c0.226-0.291,0.62-0.454,0.945-0.613c0.654-0.325,1.996-0.668,2.156-1.531c0.111-0.601-0.436-1.07-0.653-1.575
	c-0.248-0.573-0.565-1.132-0.646-1.76c-0.108-0.854,0.317-1.559,1.051-1.972c1.316-0.741,3.897-0.442,4.644-1.858
	c1.153-2.187-1.656-4.206-2.887-5.651c-0.893-1.048-1.722-2.149-2.545-3.254c-0.57-0.763-1.159-1.477-1.367-2.436
	c-0.271-1.243,0.243-2.053,0.767-3.107c0.381-0.768,0.549-1.645,0.625-2.494c0.269-2.963-0.472-6.088-1.905-8.68
	c-0.701-1.271-1.629-2.382-2.693-3.363c-0.467-0.427-1.303-0.81-1.676-1.308c-0.325-0.433,1.152-2.515,1.334-2.86
	c0.5-0.945,1.072-2.122,1.881-2.852c0.828,0.243,1.734,1.443,2.271,2.04c1.199,1.327,2.215,2.801,3.024,4.392
	c1.188,2.338,2.015,4.88,2.301,7.493c0.176,1.6,0.122,3.242-0.324,4.795c-0.366,1.276-1.339,2.288-1.198,3.679
	c0.272,2.67,2.412,4.733,3.898,6.839c1.188,1.685,2.499,3.354,4.074,4.69C96.028,62.171,96.184,63.618,95.421,64.619"/>
<path fill="#FFFFFF" d="M50.291,34.298c-0.916,0.923-1.669,1.928-2.26,3.08c-1.283,2.499-2.124,5.448-1.809,8.279
	c0.133,1.195,0.434,1.934,0.972,2.97c0.546,1.049,0.432,2.37-0.133,3.373c-0.485,0.859-1.163,1.604-1.784,2.365
	c-0.94,1.156-1.865,2.34-2.896,3.415c-0.578,0.604-1.545,1.216-1.951,1.954c-0.506,0.918-0.656,2.425,0.35,3.104
	c1.444,0.973,4.771,0.622,5.123,2.885c0.098,0.624-0.12,1.248-0.385,1.803c-0.295,0.615-1.175,1.6-0.926,2.252
	c0.368,0.963,1.685,1.202,2.447,1.718c1.372,0.93-0.583,1.036-1.161,1.725c-1.918,2.279,2.64,3.112,1.934,5.592
	c-0.282,0.989-1.131,1.456-1.575,2.325c-0.498,0.971-0.109,2.229,0.488,3.065c0.66,0.927,1.559,1.669,2.508,2.278
	c0.441,0.282,0.877,0.566,1.33,0.828c0.512,0.293,0.287,0.604,0.098,1.051c-0.453,1.066-0.869,2.143-1.385,3.182
	c-0.199,0.4-0.399,0.8-0.617,1.19c-0.238,0.432-0.611,0.071-0.943-0.11c-2.384-1.294-5.111-3.046-6.074-5.735
	c-0.311-0.866-0.381-1.89,0.113-2.699c0.513-0.844,1.5-1.35,1.021-2.51c-0.443-1.079-1.486-1.706-2.328-2.44
	c-1.213-1.057-0.107-2.547,1.122-2.912c0.632-0.188,2.11-0.755,1.06-1.529c-1.005-0.746-2.252-0.95-3.314-1.57
	c-2.629-1.537,2.027-3.959,0.842-6.115c-0.589-1.072-1.902-1.552-2.971-1.965c-0.924-0.357-2.351-0.441-3.034-1.173
	c-0.614-0.661-0.776-1.62-0.458-2.457c0.385-1.009,1.678-1.717,2.402-2.511c1.611-1.771,3.006-3.713,4.438-5.629
	c1.198-1.602,3.143-3.907,1.862-6.03c-2.714-4.506-0.59-11.096,1.947-15.215c1.176-1.909,2.727-3.968,4.604-5.261
	c0.509-0.429,1.409,1.824,1.589,2.2c0.524,1.081,1.029,2.153,1.486,3.268C52.324,33.078,50.795,33.792,50.291,34.298"/>
<g>
	<path fill="#FFD027" d="M170.224,44.6l-2.61,15.071h-2.389c-0.085-3.028-0.568-5.653-1.449-7.875
		c-0.881-2.223-1.959-3.46-3.232-3.715c-0.658-0.113-1.428-0.198-2.31-0.255c-0.881-0.057-1.895-0.085-3.041-0.085h-7.739
		l-4.247,24.497h5.207c1.235,0,2.364-0.177,3.387-0.531c1.021-0.353,2.012-1.097,2.971-2.229c0.49-0.595,1.038-1.557,1.645-2.888
		c0.606-1.33,1.091-2.744,1.454-4.246h2.388l-4.076,23.649h-2.388c0.021-0.34,0.047-0.736,0.08-1.189
		c0.032-0.452,0.048-0.947,0.048-1.485c0-0.793-0.043-1.699-0.127-2.718c-0.085-1.019-0.245-1.783-0.478-2.293
		c-0.574-1.159-1.317-1.925-2.23-2.292c-0.913-0.367-1.995-0.553-3.248-0.553h-5.191l-3.658,21.102
		c-0.042,0.227-0.075,0.46-0.096,0.7c-0.021,0.24-0.032,0.475-0.032,0.701c0,0.622,0.096,1.167,0.287,1.634s0.52,0.885,0.987,1.252
		c0.339,0.227,1.008,0.467,2.006,0.722s1.815,0.411,2.452,0.467l-0.51,2.803h-19.679l0.509-2.803
		c0.658-0.056,1.507-0.147,2.548-0.275c1.04-0.127,1.751-0.29,2.133-0.487c0.743-0.396,1.305-0.956,1.688-1.678
		c0.382-0.722,0.658-1.577,0.828-2.568l7.611-43.898c0.042-0.283,0.08-0.56,0.111-0.829c0.032-0.269,0.047-0.544,0.047-0.827
		c0-0.566-0.079-1.055-0.238-1.466c-0.159-0.409-0.494-0.784-1.003-1.124c-0.467-0.34-1.157-0.651-2.07-0.935
		c-0.913-0.282-1.677-0.467-2.292-0.552l0.509-2.802H170.224z"/>
</g>
<g>
	<path fill="#FFD027" d="M187.982,60.319c0,1.811-0.566,3.365-1.699,4.664c-1.135,1.297-2.785,2.33-4.949,3.1
		c-1.586,0.58-3.189,1.049-4.809,1.408s-3.41,0.658-5.371,0.896c0,2.695,0.498,4.754,1.496,6.176
		c0.998,1.424,2.459,2.137,4.387,2.137c1.705,0,3.209-0.426,4.514-1.279c1.305-0.852,2.588-2.123,3.85-3.811l1.457,1.074
		c-1.363,2.08-3.068,3.742-5.115,4.986c-2.045,1.246-4.168,1.867-6.367,1.867c-3.018,0-5.324-0.844-6.918-2.533
		c-1.596-1.689-2.393-4.088-2.393-7.193c0-2.15,0.338-4.203,1.012-6.158c0.672-1.953,1.656-3.74,2.953-5.363
		c1.262-1.586,2.809-2.867,4.643-3.84c1.832-0.973,3.857-1.459,6.074-1.459c2.455,0,4.275,0.5,5.459,1.498
		C187.391,57.489,187.982,58.767,187.982,60.319z M183.277,59.69c0-0.662-0.094-1.186-0.281-1.568s-0.426-0.668-0.717-0.855
		c-0.307-0.203-0.631-0.332-0.971-0.383c-0.342-0.051-0.691-0.076-1.049-0.076c-2.047,0-3.936,1.123-5.666,3.369
		s-2.826,5.043-3.285,8.395c1.193-0.17,2.539-0.412,4.041-0.727c1.5-0.314,2.744-0.727,3.734-1.238
		c1.414-0.73,2.467-1.672,3.158-2.82C182.932,62.638,183.277,61.272,183.277,59.69z"/>
	<path fill="#FFD027" d="M196.223,81.591c-2.525,0-4.627-0.449-6.305-1.344c-1.68-0.895-2.52-2.066-2.52-3.516
		c0-0.682,0.246-1.322,0.742-1.92c0.494-0.596,1.1-0.895,1.814-0.895c0.682,0,1.232,0.158,1.65,0.473
		c0.418,0.316,0.746,0.688,0.984,1.113c0.256,0.443,0.482,0.973,0.678,1.586s0.361,1.117,0.498,1.51
		c0.256,0.289,0.609,0.559,1.062,0.805c0.451,0.248,1.104,0.371,1.957,0.371c1.84,0,3.234-0.461,4.182-1.385
		c0.945-0.924,1.418-2.172,1.418-3.744c0-1.16-0.443-2.088-1.33-2.779s-2.207-1.328-3.963-1.91
		c-0.631-0.205-1.373-0.516-2.225-0.936c-0.854-0.418-1.535-0.865-2.047-1.346c-0.613-0.545-1.109-1.195-1.484-1.947
		c-0.375-0.75-0.562-1.639-0.562-2.664c0-2.188,0.977-4.078,2.93-5.676c1.951-1.598,4.352-2.396,7.199-2.396
		c0.664,0,1.381,0.035,2.148,0.102c0.768,0.068,1.611,0.256,2.531,0.564c0.801,0.271,1.484,0.678,2.047,1.215
		s0.844,1.23,0.844,2.084c0,0.699-0.234,1.334-0.703,1.904c-0.469,0.572-1.088,0.857-1.855,0.857c-0.631,0-1.15-0.137-1.559-0.41
		c-0.41-0.271-0.752-0.639-1.023-1.1c-0.273-0.459-0.494-0.953-0.666-1.482c-0.17-0.529-0.357-1.049-0.562-1.561
		c-0.324-0.137-0.613-0.23-0.869-0.281s-0.598-0.076-1.023-0.076c-1.67,0-2.938,0.449-3.797,1.346
		c-0.861,0.898-1.293,1.963-1.293,3.193c0,1.195,0.389,2.098,1.164,2.703c0.775,0.607,2.059,1.234,3.85,1.883
		c2.318,0.838,4.002,1.795,5.051,2.871s1.574,2.408,1.574,3.998c0,2.596-0.998,4.711-2.994,6.342
		C201.771,80.774,199.256,81.591,196.223,81.591z"/>
	<path fill="#FFD027" d="M215.201,81.36c-1.621,0-2.805-0.328-3.555-0.984s-1.125-1.6-1.125-2.826c0-0.393,0.025-0.764,0.076-1.113
		s0.119-0.746,0.205-1.189l3.986-17.084h-4.576l0.539-2.328h4.67l1.783-7.494h4.6l-1.729,7.494h7.119l-0.535,2.328H219.6
		l-3.301,14.092c-0.152,0.648-0.281,1.275-0.383,1.879c-0.104,0.605-0.154,1.123-0.154,1.549c0,0.938,0.234,1.623,0.703,2.059
		c0.471,0.434,1.318,0.652,2.547,0.652c0.443,0,1.064-0.055,1.867-0.166c0.801-0.111,1.424-0.252,1.867-0.422l-0.436,1.865
		c-1.193,0.461-2.318,0.857-3.375,1.189C217.877,81.194,216.633,81.36,215.201,81.36z"/>
	<path fill="#FFD027" d="M237.633,78.034l-0.383,1.637c-1.57,0.633-2.822,1.07-3.76,1.318c-0.939,0.246-1.74,0.371-2.404,0.371
		c-1.365,0-2.389-0.355-3.07-1.062c-0.682-0.709-1.021-1.584-1.021-2.625c0-0.393,0.033-0.803,0.102-1.229
		c0.068-0.428,0.18-0.965,0.332-1.613l2.703-10.881c0.135-0.598,0.268-1.238,0.395-1.922c0.129-0.682,0.191-1.262,0.191-1.74
		c0-0.955-0.156-1.592-0.473-1.906c-0.314-0.316-0.957-0.475-1.926-0.475c-0.375,0-0.873,0.061-1.494,0.18s-1.094,0.221-1.416,0.307
		l0.383-1.637c1.33-0.598,2.521-1.041,3.578-1.33c1.057-0.291,1.893-0.436,2.506-0.436c1.398,0,2.412,0.334,3.043,0.998
		c0.631,0.666,0.945,1.562,0.945,2.689c0,0.307-0.033,0.725-0.102,1.254s-0.172,1.059-0.307,1.588l-2.719,10.881
		c-0.17,0.666-0.318,1.318-0.445,1.959s-0.189,1.166-0.189,1.574c0,0.973,0.217,1.639,0.65,1.998
		c0.432,0.357,1.135,0.537,2.104,0.537c0.322,0,0.785-0.043,1.389-0.127C236.846,78.257,237.311,78.155,237.633,78.034z
		 M239.449,45.323c0,0.973-0.316,1.82-0.947,2.545s-1.416,1.088-2.354,1.088c-0.869,0-1.619-0.346-2.25-1.037
		c-0.631-0.689-0.945-1.479-0.945-2.365c0-0.938,0.314-1.756,0.945-2.455s1.381-1.049,2.25-1.049c0.973,0,1.766,0.328,2.379,0.984
		C239.143,43.69,239.449,44.454,239.449,45.323z"/>
	<path fill="#FFD027" d="M263.594,59.728c0,2.594-0.393,5.227-1.176,7.898c-0.785,2.67-1.859,5.004-3.223,7
		c-1.381,2.066-3.027,3.742-4.936,5.031c-1.91,1.289-4.008,1.934-6.293,1.934c-2.232,0-4.016-0.619-5.346-1.857
		c-1.328-1.236-1.994-2.896-1.994-4.98c0-0.393,0.047-0.836,0.141-1.33s0.158-0.828,0.191-0.998l2.227-8.193
		c0.17-0.666,0.318-1.318,0.447-1.959c0.127-0.641,0.191-1.199,0.191-1.678c0-0.955-0.166-1.596-0.498-1.92
		c-0.334-0.324-0.986-0.486-1.957-0.486c-0.357,0-0.844,0.074-1.459,0.221c-0.613,0.146-1.074,0.26-1.381,0.342l0.385-1.625
		c1.33-0.592,2.512-1.049,3.543-1.371c1.033-0.32,1.855-0.482,2.471-0.482c1.363,0,2.375,0.316,3.031,0.947
		c0.656,0.633,0.986,1.545,0.986,2.74c0,0.342-0.031,0.756-0.09,1.242c-0.061,0.486-0.166,1.02-0.32,1.6l-2.461,9.551
		c-0.17,0.648-0.299,1.271-0.383,1.869c-0.086,0.598-0.129,0.98-0.129,1.15c0,0.889,0.141,1.609,0.422,2.164
		s0.635,0.986,1.062,1.293c0.408,0.291,0.855,0.496,1.342,0.615s0.984,0.18,1.496,0.18c1.16,0,2.357-0.367,3.594-1.102
		s2.314-1.689,3.236-2.867c1.006-1.281,1.814-2.711,2.43-4.289c0.613-1.578,0.92-3.324,0.92-5.236c0-1.023-0.141-1.812-0.422-2.367
		s-0.592-1.037-0.934-1.447c-0.342-0.428-0.652-0.875-0.934-1.344s-0.422-1.131-0.422-1.984c0-0.973,0.324-1.715,0.973-2.229
		c0.646-0.512,1.33-0.768,2.045-0.768c1.006,0,1.795,0.406,2.365,1.217C263.309,57.019,263.594,58.192,263.594,59.728z"/>
	<path fill="#FFD027" d="M280.891,77.442h-0.18c-0.375,0.309-0.82,0.697-1.34,1.166s-1.129,0.916-1.828,1.344
		c-0.664,0.426-1.387,0.797-2.17,1.113s-1.635,0.473-2.555,0.473c-2.469,0-4.406-0.887-5.811-2.662s-2.107-4.197-2.107-7.27
		c0-2.117,0.393-4.174,1.176-6.17c0.785-1.996,1.865-3.789,3.246-5.377c1.312-1.518,2.871-2.742,4.678-3.672
		c1.805-0.932,3.662-1.396,5.572-1.396c1.209,0,2.363,0.162,3.463,0.486c1.098,0.324,1.963,0.691,2.594,1.102l4.693-1.205
		l0.309,0.385l-3.896,16.516c-0.137,0.529-0.277,1.174-0.422,1.934c-0.146,0.758-0.219,1.318-0.219,1.676
		c0,0.973,0.205,1.631,0.615,1.973c0.41,0.34,1.102,0.512,2.074,0.512c0.324,0,0.787-0.053,1.385-0.154s1.059-0.213,1.383-0.332
		l-0.385,1.637c-1.537,0.613-2.682,1.057-3.434,1.33c-0.752,0.271-1.666,0.408-2.742,0.408c-1.23,0-2.205-0.357-2.922-1.074
		S280.959,78.552,280.891,77.442z M284.576,61.263c0-0.562-0.061-1.102-0.18-1.613s-0.367-0.99-0.742-1.434
		c-0.342-0.428-0.811-0.768-1.408-1.025c-0.596-0.256-1.346-0.383-2.25-0.383c-1.246,0-2.457,0.41-3.635,1.229
		c-1.178,0.82-2.234,1.92-3.172,3.303c-0.887,1.299-1.613,2.869-2.176,4.713s-0.844,3.713-0.844,5.607
		c0,1.041,0.059,1.963,0.178,2.766c0.119,0.801,0.35,1.535,0.689,2.201c0.324,0.648,0.791,1.152,1.404,1.512
		c0.613,0.357,1.387,0.537,2.322,0.537c0.953,0,1.953-0.27,3-0.807s2.225-1.48,3.535-2.83L284.576,61.263z"/>
	<path fill="#FFD027" d="M306.439,41.616l-7.15,30.793c-0.154,0.646-0.299,1.295-0.436,1.943s-0.205,1.176-0.205,1.586
		c0,0.971,0.217,1.637,0.65,1.994s1.137,0.537,2.107,0.537c0.34,0,0.846-0.043,1.518-0.127c0.674-0.086,1.18-0.188,1.52-0.309
		l-0.383,1.637c-1.535,0.615-2.715,1.049-3.543,1.305c-0.826,0.256-1.76,0.385-2.801,0.385c-1.363,0-2.398-0.355-3.107-1.062
		c-0.707-0.709-1.061-1.582-1.061-2.623c0-0.393,0.039-0.803,0.115-1.229s0.184-0.965,0.32-1.613l6.232-26.949
		c0.119-0.529,0.201-0.895,0.244-1.1c0.041-0.205,0.062-0.461,0.062-0.768c0-0.615-0.102-1.088-0.307-1.422
		c-0.207-0.332-0.498-0.584-0.873-0.754c-0.361-0.154-0.814-0.256-1.363-0.307c-0.549-0.053-1.105-0.111-1.67-0.18l0.359-1.561
		l9.514-0.562L306.439,41.616z"/>
</g>
<g>
	<path fill="#FFFFFF" d="M152.81,21.146v0.925c-0.708,0.021-1.129,0.048-1.262,0.079c-0.133,0.031-0.228,0.07-0.284,0.116
		c-0.056,0.045-0.094,0.104-0.116,0.173c-0.049,0.119-0.084,0.348-0.105,0.684c-0.014,0.183-0.024,0.526-0.031,1.03
		c-0.028,1.725-0.042,2.654-0.042,2.787v4.237l0.032,1.925c0,0.722,0.035,1.191,0.105,1.409c0.028,0.098,0.075,0.173,0.142,0.226
		c0.066,0.053,0.172,0.095,0.315,0.126c0.144,0.032,0.559,0.055,1.246,0.068v0.926c-1.143-0.042-2.362-0.063-3.659-0.063
		c-1.129,0-2.135,0.021-3.018,0.063v-0.926c0.729-0.027,1.149-0.052,1.262-0.073c0.147-0.028,0.247-0.066,0.3-0.115
		c0.053-0.05,0.086-0.105,0.1-0.169c0.021-0.084,0.049-0.413,0.084-0.988c0.056-0.841,0.084-1.619,0.084-2.334v-4.396
		c0-1.396-0.007-2.293-0.021-2.692c-0.035-0.89-0.077-1.447-0.126-1.672c-0.021-0.091-0.055-0.161-0.1-0.21s-0.13-0.09-0.252-0.121
		s-0.566-0.062-1.33-0.09v-0.925c0.883,0.042,1.896,0.062,3.039,0.062C150.454,21.209,151.667,21.188,152.81,21.146z"/>
	<path fill="#FFFFFF" d="M155.185,34.964c0.827-0.042,1.3-0.081,1.42-0.116c0.077-0.027,0.142-0.073,0.194-0.137
		c0.053-0.062,0.096-0.192,0.131-0.389c0.042-0.267,0.091-0.911,0.147-1.935c0.028-0.582,0.042-1.339,0.042-2.271V26.74l-0.042-3.06
		c-0.007-0.512-0.028-0.845-0.063-0.999c-0.035-0.154-0.086-0.269-0.153-0.342c-0.066-0.073-0.177-0.132-0.331-0.174
		s-0.603-0.087-1.346-0.137v-0.883c0.89,0.042,1.546,0.062,1.966,0.062l1.524-0.031l0.968-0.031c1.444,1.886,3.193,4.059,5.247,6.52
		c1.479,1.773,2.706,3.161,3.681,4.164v-2.429c0-3.771-0.042-5.99-0.126-6.657c-0.028-0.259-0.092-0.427-0.189-0.504
		c-0.161-0.127-0.708-0.196-1.641-0.211v-0.883c0.855,0.042,1.641,0.062,2.355,0.062c0.694,0,1.588-0.021,2.682-0.062v0.883
		c-0.855,0.021-1.363,0.084-1.524,0.189c-0.057,0.035-0.095,0.088-0.116,0.158c-0.105,0.351-0.174,1.151-0.205,2.402
		s-0.047,2.175-0.047,2.771c0,4.662,0.045,7.491,0.137,8.486l-0.137,0.095c-0.589-0.099-1.188-0.189-1.799-0.273
		c-2.264-2.53-5.475-6.33-9.632-11.398v5.236c0,1.087,0.021,2.219,0.063,3.396c0.028,0.813,0.07,1.308,0.126,1.482
		c0.028,0.084,0.075,0.152,0.142,0.205s0.185,0.09,0.353,0.11c0.456,0.057,0.788,0.085,0.999,0.085c0.042,0,0.112-0.004,0.211-0.011
		v0.852c-1.332-0.014-2.09-0.021-2.272-0.021c-0.68,0-1.602,0.021-2.766,0.063V34.964z"/>
	<path fill="#FFFFFF" d="M173.955,35.857v-0.894c0.793-0.057,1.262-0.112,1.409-0.169c0.085-0.027,0.151-0.076,0.2-0.146
		c0.062-0.092,0.105-0.225,0.126-0.399c0.049-0.4,0.091-1.272,0.126-2.619c0.021-0.651,0.031-1.773,0.031-3.364
		c0-1.424-0.01-2.684-0.031-3.78c-0.021-1.098-0.066-1.751-0.137-1.962c-0.027-0.098-0.072-0.173-0.131-0.226
		c-0.061-0.053-0.174-0.093-0.342-0.121c-0.463-0.077-0.881-0.122-1.252-0.137v-0.894c1.444,0.042,2.439,0.062,2.986,0.062
		c0.723,0,1.447-0.021,2.178-0.062l0.925,2.082l0.735,1.577l3.345,6.898c0.715-1.381,1.251-2.454,1.608-3.218l1.389-2.913
		c0.771-1.626,1.242-2.627,1.414-3.002s0.366-0.851,0.584-1.425c0.918,0.049,1.507,0.073,1.766,0.073l3.135-0.073v0.894h-0.148
		c-0.707-0.007-1.156,0.075-1.346,0.247s-0.283,0.503-0.283,0.994c0,0.582-0.004,1.023-0.011,1.324l-0.053,2.955v3.691
		c0,0.897,0.003,1.423,0.011,1.577c0.056,0.891,0.105,1.438,0.146,1.641c0.021,0.098,0.061,0.177,0.116,0.236
		s0.137,0.105,0.241,0.137c0.105,0.031,0.547,0.072,1.326,0.121v0.894l-3.355-0.063l-3.28,0.063v-0.894
		c0.869-0.028,1.365-0.079,1.487-0.152c0.123-0.074,0.211-0.24,0.264-0.5c0.053-0.259,0.078-1.129,0.078-2.607v-7.655l-2.439,4.932
		l-1.167,2.45c-0.309,0.645-0.743,1.581-1.304,2.808c-0.344,0.743-0.613,1.343-0.811,1.798h-0.715
		c-0.252-0.589-0.617-1.395-1.094-2.419c-0.812-1.752-1.43-3.06-1.85-3.922l-2.766-5.646v5.163c0,0.862,0.012,1.888,0.037,3.075
		c0.023,1.188,0.05,1.861,0.078,2.02c0.027,0.157,0.072,0.271,0.131,0.342c0.061,0.07,0.165,0.13,0.316,0.179
		c0.15,0.049,0.58,0.095,1.287,0.137v0.894c-0.785-0.042-1.587-0.063-2.407-0.063C175.438,35.794,174.586,35.815,173.955,35.857z"/>
	<path fill="#FFFFFF" d="M196.262,35.857v-0.873c0.567-0.042,0.906-0.078,1.014-0.11c0.109-0.031,0.202-0.08,0.279-0.147
		c0.077-0.066,0.156-0.171,0.236-0.315c0.081-0.144,0.321-0.678,0.721-1.604c0.182-0.435,0.533-1.293,1.051-2.576l2.745-6.771
		l0.925-2.388h1.494l4.7,10.979l0.651,1.44l0.422,0.968c0.069,0.126,0.137,0.217,0.199,0.273c0.062,0.056,0.135,0.098,0.215,0.126
		c0.081,0.028,0.286,0.053,0.615,0.073c0.105,0.015,0.26,0.032,0.463,0.053v0.873l-2.923-0.063l-3.69,0.063v-0.873
		c0.848-0.035,1.326-0.082,1.435-0.142s0.163-0.159,0.163-0.3c0-0.175-0.08-0.463-0.242-0.862l-0.904-2.313h-5.404l-0.463,1.262
		c-0.351,0.968-0.525,1.57-0.525,1.809c0,0.169,0.056,0.288,0.168,0.357c0.168,0.099,0.669,0.162,1.504,0.189v0.873l-2.43-0.063
		L196.262,35.857z M200.909,30.169c0.659,0.021,1.405,0.031,2.239,0.031c0.807,0,1.529-0.011,2.166-0.031l-2.25-5.427
		L200.909,30.169z"/>
	<path fill="#FFFFFF" d="M214.275,34.964c0.827-0.042,1.301-0.081,1.42-0.116c0.076-0.027,0.142-0.073,0.194-0.137
		c0.053-0.062,0.097-0.192,0.132-0.389c0.041-0.267,0.091-0.911,0.146-1.935c0.028-0.582,0.043-1.339,0.043-2.271V26.74l-0.043-3.06
		c-0.007-0.512-0.027-0.845-0.062-0.999s-0.086-0.269-0.152-0.342s-0.178-0.132-0.332-0.174s-0.603-0.087-1.346-0.137v-0.883
		c0.891,0.042,1.546,0.062,1.967,0.062l1.524-0.031l0.968-0.031c1.443,1.886,3.193,4.059,5.247,6.52
		c1.479,1.773,2.706,3.161,3.681,4.164v-2.429c0-3.771-0.043-5.99-0.127-6.657c-0.027-0.259-0.091-0.427-0.189-0.504
		c-0.16-0.127-0.707-0.196-1.64-0.211v-0.883c0.854,0.042,1.64,0.062,2.355,0.062c0.694,0,1.587-0.021,2.681-0.062v0.883
		c-0.855,0.021-1.363,0.084-1.523,0.189c-0.057,0.035-0.096,0.088-0.116,0.158c-0.105,0.351-0.174,1.151-0.205,2.402
		c-0.032,1.251-0.048,2.175-0.048,2.771c0,4.662,0.046,7.491,0.137,8.486l-0.137,0.095c-0.588-0.099-1.188-0.189-1.798-0.273
		c-2.265-2.53-5.476-6.33-9.632-11.398v5.236c0,1.087,0.021,2.219,0.062,3.396c0.028,0.813,0.07,1.308,0.127,1.482
		c0.027,0.084,0.074,0.152,0.142,0.205c0.066,0.053,0.185,0.09,0.353,0.11c0.455,0.057,0.788,0.085,0.998,0.085
		c0.043,0,0.113-0.004,0.211-0.011v0.852c-1.332-0.014-2.09-0.021-2.271-0.021c-0.68,0-1.602,0.021-2.766,0.063V34.964z"/>
	<path fill="#FFFFFF" d="M238.69,22.02v-0.873l3.112,0.073l4.701-0.095c0.918,0,1.644,0.095,2.176,0.284
		c0.533,0.189,0.99,0.533,1.373,1.03c0.382,0.498,0.572,1.143,0.572,1.936c0,0.792-0.184,1.528-0.551,2.208
		c-0.369,0.68-0.943,1.239-1.725,1.677c-0.782,0.438-1.618,0.657-2.508,0.657c-0.225,0-0.444-0.012-0.658-0.036
		c-0.214-0.025-0.426-0.062-0.636-0.111c-0.07-0.195-0.196-0.444-0.379-0.746l0.222-0.231c0.153,0.049,0.299,0.086,0.436,0.11
		s0.262,0.037,0.373,0.037c0.68,0,1.241-0.24,1.684-0.721c0.441-0.479,0.662-1.179,0.662-2.098c0-0.96-0.231-1.683-0.694-2.166
		s-1.108-0.726-1.935-0.726c-0.393,0-0.831,0.046-1.314,0.137c-0.035,0.435-0.057,1.072-0.063,1.914l-0.031,2.061v3.985
		c0,0.981,0.014,1.998,0.042,3.05c0.021,0.609,0.06,0.995,0.115,1.156c0.028,0.07,0.076,0.132,0.143,0.185s0.188,0.093,0.362,0.121
		l1.42,0.094v0.926c-1.795-0.042-3.144-0.063-4.049-0.063c-0.995,0-1.945,0.021-2.85,0.063v-0.926
		c0.778-0.014,1.269-0.073,1.472-0.179c0.063-0.034,0.113-0.087,0.148-0.157c0.049-0.099,0.087-0.354,0.115-0.768
		c0.076-1.122,0.115-2.369,0.115-3.744v-3.712l-0.042-1.977c-0.015-0.848-0.03-1.378-0.047-1.588
		c-0.018-0.21-0.052-0.361-0.101-0.452c-0.027-0.056-0.075-0.105-0.142-0.147s-0.188-0.08-0.362-0.115L238.69,22.02z"/>
	<path fill="#FFFFFF" d="M250.309,35.857v-0.873c0.568-0.042,0.906-0.078,1.016-0.11c0.108-0.031,0.201-0.08,0.278-0.147
		c0.077-0.066,0.155-0.171,0.237-0.315c0.08-0.144,0.32-0.678,0.72-1.604c0.183-0.435,0.532-1.293,1.052-2.576l2.744-6.771
		l0.926-2.388h1.492l4.701,10.979l0.652,1.44l0.42,0.968c0.07,0.126,0.137,0.217,0.2,0.273c0.063,0.056,0.135,0.098,0.216,0.126
		c0.08,0.028,0.285,0.053,0.615,0.073c0.104,0.015,0.259,0.032,0.463,0.053v0.873l-2.924-0.063l-3.691,0.063v-0.873
		c0.849-0.035,1.327-0.082,1.436-0.142c0.109-0.06,0.163-0.159,0.163-0.3c0-0.175-0.081-0.463-0.241-0.862l-0.904-2.313h-5.406
		l-0.462,1.262c-0.351,0.968-0.526,1.57-0.526,1.809c0,0.169,0.057,0.288,0.169,0.357c0.168,0.099,0.669,0.162,1.503,0.189v0.873
		l-2.429-0.063L250.309,35.857z M254.957,30.169c0.658,0.021,1.405,0.031,2.24,0.031c0.806,0,1.527-0.011,2.166-0.031l-2.25-5.427
		L254.957,30.169z"/>
	<path fill="#FFFFFF" d="M268.334,22.02v-0.862c0.16,0,0.721,0.014,1.682,0.042c0.47,0.014,1.136,0.021,1.998,0.021
		c0.736,0,1.367-0.014,1.893-0.042c0.869-0.035,1.588-0.053,2.156-0.053c1.1,0,1.924,0.079,2.471,0.237
		c0.547,0.157,1.014,0.485,1.398,0.982c0.386,0.498,0.578,1.104,0.578,1.819c0,0.849-0.262,1.619-0.788,2.313
		s-1.335,1.244-2.429,1.651c0.175,0.315,0.375,0.638,0.6,0.967c0.224,0.33,0.355,0.529,0.394,0.6s0.079,0.137,0.121,0.2l1.63,2.45
		c0.435,0.651,0.67,1.002,0.705,1.051c0.525,0.701,0.848,1.115,0.967,1.241s0.234,0.214,0.348,0.263
		c0.111,0.049,0.332,0.077,0.662,0.084v0.873c-1.08-0.028-1.861-0.042-2.346-0.042c-0.561,0-1.117,0.014-1.672,0.042
		c-0.035-0.154-0.119-0.354-0.252-0.6l-2.25-3.712c-0.645-1.065-1.191-1.903-1.641-2.513c-0.225-0.309-0.441-0.54-0.652-0.694
		l0.116-0.347c0.841,0.027,1.476-0.059,1.903-0.258c0.428-0.2,0.789-0.558,1.083-1.072c0.294-0.516,0.441-1.092,0.441-1.73
		c0-0.645-0.154-1.181-0.462-1.608c-0.309-0.428-0.691-0.726-1.146-0.895c-0.295-0.104-0.82-0.157-1.578-0.157
		c-0.336,0-0.669,0.028-0.998,0.084c-0.021,0.253-0.043,0.82-0.063,1.703c-0.042,1.984-0.063,3.31-0.063,3.976
		c0,1.052,0.011,2.166,0.031,3.344c0.029,1.444,0.05,2.265,0.064,2.461c0.021,0.393,0.059,0.648,0.115,0.768
		c0.027,0.056,0.073,0.106,0.137,0.152c0.062,0.046,0.164,0.082,0.305,0.11s0.547,0.049,1.22,0.062v0.926
		c-1.198-0.042-2.411-0.063-3.638-0.063c-1.094,0-2.107,0.021-3.039,0.063v-0.926c0.799-0.027,1.271-0.066,1.419-0.115
		c0.085-0.021,0.146-0.056,0.185-0.105c0.038-0.049,0.068-0.146,0.089-0.294c0.049-0.273,0.084-0.688,0.105-1.241l0.084-3.07v-3.901
		l-0.042-2.219c-0.014-0.876-0.057-1.402-0.127-1.577c-0.035-0.077-0.087-0.137-0.157-0.179
		C269.722,22.146,269.203,22.075,268.334,22.02z"/>
	<path fill="#FFFFFF" d="M300.451,34.942v0.915c-1.018-0.028-1.893-0.042-2.629-0.042c-0.568,0-1.115,0.014-1.641,0.042
		c-0.176-0.357-0.449-0.757-0.82-1.199l-2.051-2.355c-1.549-1.829-2.373-2.793-2.471-2.892c-0.26-0.287-0.463-0.466-0.61-0.536
		c-0.099-0.049-0.183-0.073-0.252-0.073c-0.056,0-0.105,0.014-0.147,0.042c-0.035,0.021-0.058,0.046-0.068,0.073
		c-0.01,0.028-0.016,0.109-0.016,0.242v2.366l0.031,2.082c0.008,0.554,0.053,0.897,0.137,1.03c0.049,0.077,0.144,0.141,0.284,0.189
		c0.14,0.049,0.599,0.088,1.378,0.115v0.915c-1.15-0.042-2.363-0.063-3.639-0.063c-1.136,0-2.148,0.021-3.039,0.063v-0.915
		c0.729-0.035,1.199-0.084,1.409-0.147c0.077-0.027,0.142-0.073,0.194-0.137c0.053-0.062,0.095-0.159,0.126-0.289
		c0.032-0.129,0.058-0.408,0.079-0.836c0.062-1.037,0.095-1.787,0.095-2.25v-3.817l-0.073-3.26
		c-0.015-0.799-0.046-1.328-0.096-1.588c-0.035-0.154-0.074-0.256-0.12-0.305s-0.118-0.088-0.216-0.115
		c-0.154-0.042-0.621-0.085-1.398-0.127v-0.925c0.891,0.042,1.906,0.062,3.049,0.062c1.276,0,2.486-0.021,3.629-0.062v0.925
		c-0.814,0.021-1.309,0.077-1.483,0.169c-0.104,0.062-0.179,0.196-0.221,0.399c-0.084,0.456-0.126,1.321-0.126,2.597v2.902
		l0.168,0.074c0.659-0.526,1.563-1.381,2.713-2.566l1.494-1.524c0.482-0.498,0.823-0.855,1.02-1.072l0.926-1.083
		c0.006-0.147-0.004-0.421-0.032-0.82c0.708,0.014,1.185,0.021,1.431,0.021l2.471-0.021v0.852c-0.652,0.014-1.125,0.064-1.42,0.152
		c-0.294,0.088-0.658,0.304-1.094,0.646c-0.435,0.344-1.324,1.122-2.67,2.335l-1.998,1.998c0.336,0.42,0.837,1.02,1.504,1.798
		l2.303,2.702c1.064,1.248,1.787,2.075,2.166,2.482c0.379,0.406,0.655,0.646,0.83,0.72C299.732,34.906,300.03,34.942,300.451,34.942
		z"/>
</g>
<g>
	<path fill="#FFFFFF" d="M169.335,99.979l0.21,0.473c-0.155,0.139-0.391,0.381-0.707,0.725s-0.543,0.602-0.678,0.775
		c-0.349,0.078-0.634,0.115-0.855,0.115c-0.416,0-0.801-0.062-1.153-0.188c-0.508-0.174-1.034-0.461-1.581-0.863
		c-0.444,0.354-0.915,0.617-1.41,0.795c-0.495,0.176-1.055,0.264-1.679,0.264c-1.111,0-1.955-0.301-2.53-0.902
		s-0.863-1.281-0.863-2.041c0-0.557,0.141-1.041,0.421-1.457c0.387-0.57,1.024-1.066,1.914-1.486
		c-0.184-0.412-0.312-0.768-0.384-1.066c-0.073-0.301-0.109-0.604-0.109-0.914c0-0.42,0.082-0.725,0.247-0.914l0.696-0.805
		c0.323-0.377,0.543-0.596,0.659-0.66c0.406-0.217,0.832-0.326,1.276-0.326c0.329,0,0.624,0.066,0.885,0.197
		c0.261,0.129,0.459,0.32,0.595,0.572c0.135,0.252,0.203,0.529,0.203,0.834c0,0.436-0.152,0.875-0.457,1.322
		s-0.94,0.973-1.907,1.578c0.444,0.672,0.944,1.312,1.497,1.924c0.554,0.613,1.087,1.111,1.6,1.498
		c0.164-0.27,0.282-0.516,0.354-0.736c0.073-0.219,0.109-0.441,0.109-0.662c0-0.174-0.024-0.361-0.072-0.562
		c-0.049-0.201-0.119-0.377-0.211-0.525H164.1l-0.065-0.088c0.102-0.158,0.177-0.285,0.225-0.377l0.246-0.537
		c0.938,0.025,1.487,0.037,1.646,0.037c1.314,0,2.325-0.039,3.031-0.115l0.064,0.057c-0.105,0.295-0.173,0.504-0.199,0.625
		c-0.026,0.119-0.047,0.266-0.062,0.434l-0.065,0.08c-0.604-0.049-0.944-0.072-1.022-0.072c-0.193-0.01-0.561-0.02-1.102-0.029
		c0.048,0.232,0.072,0.436,0.072,0.609c0,0.363-0.071,0.713-0.214,1.051c-0.143,0.34-0.402,0.74-0.779,1.205
		c0.328,0.23,0.7,0.41,1.116,0.535c0.416,0.127,0.81,0.189,1.183,0.189c0.11,0,0.202-0.012,0.275-0.033
		c0.072-0.021,0.156-0.061,0.254-0.119L169.335,99.979z M160.713,96.804c-0.256,0.154-0.46,0.355-0.612,0.598
		c-0.152,0.244-0.229,0.527-0.229,0.846c0,0.475,0.129,0.934,0.388,1.381s0.59,0.793,0.993,1.037
		c0.404,0.244,0.818,0.367,1.244,0.367c0.488,0,0.972-0.156,1.45-0.465c-0.706-0.594-1.302-1.174-1.787-1.74
		C161.674,98.261,161.191,97.587,160.713,96.804z M161.815,95.397c0.469-0.328,0.813-0.648,1.033-0.961s0.33-0.641,0.33-0.99
		c0-0.309-0.087-0.557-0.262-0.742c-0.174-0.186-0.392-0.279-0.652-0.279c-0.275,0-0.506,0.1-0.692,0.297
		c-0.187,0.199-0.279,0.465-0.279,0.797C161.293,94.046,161.467,94.673,161.815,95.397z"/>
	<path fill="#FFFFFF" d="M176.954,101.821v-0.594c0.58-0.02,0.925-0.059,1.033-0.117c0.108-0.057,0.183-0.154,0.222-0.289
		c0.053-0.207,0.079-0.834,0.079-1.879v-4.342c0-1.186-0.007-1.848-0.021-1.988h-1.037c-0.521,0-0.981,0.018-1.378,0.051
		c-0.159,0.016-0.251,0.035-0.275,0.059c-0.033,0.029-0.062,0.113-0.087,0.254c-0.062,0.338-0.099,0.719-0.108,1.139h-0.602
		c-0.02-0.99-0.032-1.549-0.037-1.676c-0.014-0.213-0.038-0.441-0.072-0.688l0.065-0.074c0.228,0.025,0.469,0.043,0.725,0.051
		c0.416,0.016,1.216,0.023,2.4,0.023h2.93c1.218,0,2.032-0.008,2.443-0.023c0.223-0.008,0.447-0.025,0.675-0.051l0.072,0.074
		c-0.044,0.295-0.07,0.553-0.08,0.775c-0.005,0.039-0.015,0.568-0.029,1.588h-0.602c-0.01-0.377-0.041-0.738-0.094-1.08
		c-0.029-0.174-0.061-0.279-0.095-0.312c-0.029-0.023-0.106-0.041-0.231-0.051c-0.396-0.039-0.873-0.059-1.429-0.059h-1.037
		c-0.015,0.17-0.021,0.832-0.021,1.988v4.342c0,1.045,0.026,1.674,0.079,1.887c0.034,0.125,0.106,0.219,0.218,0.279
		s0.457,0.1,1.037,0.119v0.594c-0.938-0.043-1.729-0.064-2.371-0.064C178.639,101.757,177.849,101.778,176.954,101.821z"/>
	<path fill="#FFFFFF" d="M185.328,96.87c0-0.885,0.134-1.656,0.402-2.314c0.269-0.656,0.651-1.215,1.149-1.674
		s1.039-0.791,1.624-0.994c0.749-0.256,1.566-0.385,2.451-0.385c0.88,0,1.677,0.123,2.393,0.371c0.531,0.188,1.002,0.459,1.41,0.814
		s0.719,0.721,0.932,1.092c0.213,0.373,0.374,0.781,0.482,1.225c0.108,0.445,0.163,0.936,0.163,1.473
		c0,0.908-0.157,1.752-0.472,2.531c-0.231,0.58-0.571,1.094-1.019,1.545c-0.447,0.449-0.956,0.795-1.526,1.035
		c-0.783,0.324-1.677,0.486-2.683,0.486c-1.088,0-2.021-0.197-2.803-0.59c-0.78-0.395-1.394-0.977-1.838-1.744
		C185.551,98.972,185.328,98.015,185.328,96.87z M187.562,96.442c0,1.125,0.154,2.057,0.464,2.795
		c0.31,0.736,0.706,1.258,1.189,1.562s1.054,0.457,1.711,0.457c0.609,0,1.154-0.146,1.635-0.436
		c0.481-0.291,0.858-0.781,1.132-1.473c0.272-0.691,0.409-1.529,0.409-2.516c0-0.676-0.073-1.295-0.221-1.855
		s-0.359-1.039-0.635-1.434c-0.275-0.393-0.601-0.693-0.976-0.902c-0.374-0.207-0.871-0.311-1.489-0.311
		c-0.706,0-1.307,0.164-1.803,0.496c-0.495,0.33-0.855,0.82-1.08,1.469C187.674,94.942,187.562,95.659,187.562,96.442z"/>
	<path fill="#FFFFFF" d="M197.507,92.28v-0.604l2.357,0.045l0.979-0.016l0.979-0.021l0.269-0.008v0.604
		c-0.522,0-0.854,0.045-0.993,0.137c-0.072,0.043-0.121,0.129-0.146,0.254c-0.067,0.301-0.102,0.959-0.102,1.98v1.682l0.008,0.848
		c0,0.885,0.01,1.432,0.028,1.639c0.044,0.455,0.157,0.82,0.341,1.1c0.184,0.277,0.466,0.502,0.845,0.674
		c0.38,0.172,0.862,0.258,1.447,0.258c0.672,0,1.207-0.115,1.605-0.346c0.399-0.229,0.683-0.527,0.853-0.895
		c0.169-0.367,0.254-1.066,0.254-2.096v-1.479c0-1.277-0.003-2.055-0.008-2.336c-0.015-0.609-0.048-0.977-0.102-1.102
		c-0.033-0.078-0.089-0.135-0.167-0.174c-0.159-0.082-0.507-0.131-1.044-0.145v-0.604c0.875,0.035,1.395,0.051,1.56,0.051
		c0.043,0,0.108-0.002,0.195-0.006l1.609-0.045v0.604c-0.449,0-0.731,0.035-0.848,0.107c-0.059,0.039-0.105,0.113-0.142,0.223
		c-0.036,0.107-0.071,0.598-0.105,1.467c-0.033,0.871-0.051,1.557-0.051,2.061v1.703c0,0.436-0.031,0.885-0.094,1.35
		c-0.063,0.463-0.19,0.859-0.381,1.188c-0.191,0.33-0.46,0.627-0.809,0.893c-0.348,0.266-0.761,0.467-1.24,0.602
		c-0.479,0.135-1.031,0.203-1.66,0.203c-0.734,0-1.421-0.1-2.06-0.297c-0.464-0.145-0.843-0.34-1.138-0.584s-0.52-0.518-0.675-0.818
		c-0.154-0.303-0.249-0.594-0.282-0.875c-0.024-0.174-0.037-0.643-0.037-1.406l0.008-1.393V94.86c0-0.676-0.015-1.285-0.044-1.826
		c-0.014-0.213-0.043-0.367-0.087-0.465c-0.024-0.053-0.084-0.115-0.181-0.188L197.507,92.28z"/>
	<path fill="#FFFFFF" d="M209.862,92.28v-0.596c0.111,0,0.498,0.01,1.16,0.029c0.323,0.01,0.783,0.014,1.378,0.014
		c0.507,0,0.942-0.008,1.305-0.027c0.6-0.025,1.095-0.037,1.486-0.037c0.759,0,1.327,0.055,1.704,0.164
		c0.377,0.107,0.698,0.334,0.965,0.678c0.266,0.342,0.398,0.76,0.398,1.254c0,0.584-0.182,1.117-0.544,1.596
		s-0.921,0.857-1.675,1.139c0.121,0.217,0.259,0.439,0.413,0.666c0.155,0.227,0.245,0.365,0.272,0.414
		c0.026,0.047,0.054,0.094,0.083,0.137l1.124,1.689c0.3,0.449,0.462,0.691,0.485,0.727c0.363,0.482,0.585,0.768,0.667,0.855
		c0.083,0.086,0.162,0.146,0.239,0.18c0.078,0.035,0.23,0.055,0.457,0.059v0.602c-0.744-0.02-1.283-0.029-1.617-0.029
		c-0.387,0-0.771,0.01-1.152,0.029c-0.024-0.105-0.082-0.244-0.174-0.412l-1.552-2.561c-0.445-0.734-0.822-1.312-1.132-1.732
		c-0.154-0.213-0.304-0.373-0.449-0.479l0.08-0.24c0.58,0.02,1.018-0.039,1.312-0.178c0.295-0.137,0.544-0.383,0.746-0.738
		c0.203-0.355,0.305-0.754,0.305-1.193c0-0.445-0.106-0.814-0.318-1.109c-0.213-0.295-0.477-0.5-0.791-0.617
		c-0.203-0.072-0.565-0.107-1.087-0.107c-0.232,0-0.462,0.02-0.689,0.057c-0.015,0.174-0.029,0.566-0.043,1.176
		c-0.029,1.367-0.044,2.281-0.044,2.74c0,0.725,0.008,1.494,0.021,2.307c0.02,0.996,0.034,1.561,0.044,1.695
		c0.015,0.271,0.041,0.447,0.08,0.529c0.019,0.039,0.051,0.074,0.094,0.105c0.044,0.031,0.113,0.057,0.21,0.076
		s0.378,0.035,0.842,0.045v0.637c-0.827-0.029-1.663-0.043-2.509-0.043c-0.755,0-1.453,0.014-2.096,0.043v-0.637
		c0.551-0.02,0.877-0.047,0.979-0.08c0.059-0.016,0.101-0.039,0.127-0.072c0.026-0.035,0.047-0.102,0.062-0.203
		c0.034-0.189,0.059-0.475,0.073-0.855l0.058-2.117v-2.691l-0.029-1.529c-0.01-0.605-0.038-0.967-0.087-1.088
		c-0.024-0.053-0.061-0.094-0.108-0.123C210.819,92.366,210.462,92.317,209.862,92.28z"/>
	<path fill="#FFFFFF" d="M225.205,98.399c0-0.822,0.14-1.502,0.42-2.041s0.701-0.945,1.262-1.219s1.214-0.41,1.958-0.41
		c1.116,0,1.966,0.293,2.549,0.879c0.582,0.584,0.873,1.441,0.873,2.574c0,0.652-0.084,1.217-0.253,1.695
		c-0.17,0.479-0.396,0.865-0.682,1.156c-0.285,0.293-0.585,0.514-0.899,0.664c-0.536,0.252-1.141,0.377-1.812,0.377
		c-1.093,0-1.936-0.311-2.527-0.932S225.205,99.608,225.205,98.399z M227.213,98.052c0,1.285,0.188,2.201,0.565,2.748
		c0.252,0.361,0.609,0.543,1.073,0.543c0.396,0,0.711-0.137,0.943-0.412c0.309-0.367,0.464-1.078,0.464-2.133
		c0-0.74-0.062-1.373-0.186-1.902c-0.123-0.529-0.304-0.898-0.543-1.107c-0.239-0.207-0.528-0.311-0.867-0.311
		c-0.29,0-0.544,0.076-0.761,0.229c-0.218,0.152-0.387,0.408-0.508,0.768C227.273,96.835,227.213,97.36,227.213,98.052z"/>
	<path fill="#FFFFFF" d="M233.674,101.821v-0.551c0.57-0.039,0.908-0.092,1.015-0.16c0.082-0.053,0.131-0.148,0.146-0.289
		c0.033-0.252,0.055-1.039,0.064-2.363v-2.176l-0.202-0.008l-0.986,0.043v-0.354c0.643-0.334,0.977-0.512,1-0.529
		c0.063-0.045,0.095-0.102,0.095-0.176c0-0.227,0.011-0.508,0.032-0.844c0.022-0.336,0.055-0.574,0.099-0.715
		c0.043-0.141,0.113-0.275,0.21-0.406c0.159-0.213,0.512-0.555,1.059-1.029l0.877-0.783c0.141-0.121,0.303-0.217,0.486-0.285
		c0.184-0.07,0.392-0.105,0.623-0.105c0.237,0,0.491,0.043,0.762,0.131c-0.077,0.521-0.111,1.004-0.102,1.449l-0.29,0.131
		c-0.145-0.135-0.28-0.229-0.406-0.279s-0.285-0.076-0.479-0.076c-0.28,0-0.503,0.053-0.667,0.16
		c-0.116,0.076-0.193,0.18-0.232,0.311c-0.058,0.193-0.087,0.678-0.087,1.451v1.008l0.856-0.008c0.415-0.01,0.775-0.025,1.08-0.051
		l0.094,0.072c-0.023,0.082-0.043,0.168-0.058,0.254l-0.116,0.646l-0.732-0.016c-0.213-0.01-0.333-0.014-0.362-0.014
		c-0.087,0-0.341,0.006-0.762,0.021v2.312c0,0.518,0.007,1.012,0.019,1.48s0.032,0.75,0.062,0.848
		c0.024,0.068,0.062,0.123,0.112,0.166c0.051,0.045,0.135,0.076,0.25,0.096c0.029,0.004,0.358,0.031,0.986,0.078v0.559l-2.473-0.035
		C235.341,101.786,234.684,101.798,233.674,101.821z"/>
	<path fill="#FFFFFF" d="M244.02,101.821v-0.637c0.459-0.01,0.74-0.025,0.841-0.045c0.102-0.02,0.177-0.047,0.226-0.082
		c0.048-0.037,0.082-0.09,0.102-0.156c0.048-0.145,0.074-0.48,0.079-1.008l0.029-1.443v-3.395l-0.029-1.428
		c-0.005-0.537-0.031-0.877-0.079-1.021c-0.02-0.068-0.053-0.121-0.099-0.156c-0.046-0.037-0.119-0.066-0.221-0.088
		s-0.385-0.037-0.849-0.047v-0.639c0.793,0.029,1.629,0.045,2.509,0.045c0.788,0,1.486-0.016,2.096-0.045v0.639
		c-0.518,0.02-0.822,0.041-0.914,0.062s-0.156,0.057-0.195,0.105c-0.039,0.047-0.067,0.217-0.087,0.506
		c-0.044,0.494-0.065,1.205-0.065,2.133v0.834c0.348,0.029,1.078,0.043,2.189,0.043c1.402,0,2.268-0.014,2.597-0.043v-0.834
		c0-0.75-0.005-1.23-0.015-1.443c-0.039-0.643-0.068-1.006-0.087-1.088c-0.015-0.057-0.038-0.102-0.069-0.133
		c-0.031-0.033-0.09-0.059-0.174-0.08c-0.085-0.021-0.388-0.043-0.91-0.062v-0.639c0.609,0.029,1.308,0.045,2.096,0.045
		c0.88,0,1.716-0.016,2.509-0.045v0.639c-0.459,0.01-0.739,0.025-0.841,0.043c-0.102,0.02-0.177,0.049-0.226,0.084
		c-0.048,0.037-0.082,0.088-0.101,0.156c-0.049,0.15-0.075,0.486-0.08,1.008l-0.029,1.449v3.395l0.029,1.422
		c0.005,0.541,0.029,0.881,0.072,1.021c0.024,0.068,0.06,0.121,0.105,0.16s0.119,0.066,0.221,0.086s0.385,0.035,0.849,0.045v0.637
		c-0.793-0.029-1.629-0.043-2.509-0.043c-0.788,0-1.486,0.014-2.096,0.043v-0.637c0.518-0.02,0.822-0.041,0.914-0.062
		s0.156-0.057,0.195-0.105s0.067-0.217,0.087-0.508c0.039-0.492,0.059-1.203,0.059-2.131v-1.516
		c-0.242-0.033-0.945-0.051-2.11-0.051c-1.117,0-1.861,0.004-2.233,0.014c-0.149,0.006-0.297,0.018-0.442,0.037v1.516
		c0,0.754,0.008,1.234,0.021,1.443c0.039,0.643,0.068,1.008,0.087,1.094c0.015,0.053,0.038,0.096,0.069,0.127s0.09,0.059,0.174,0.08
		c0.085,0.021,0.388,0.043,0.91,0.062v0.637c-0.609-0.029-1.308-0.043-2.096-0.043C245.648,101.778,244.812,101.792,244.02,101.821z
		"/>
	<path fill="#FFFFFF" d="M256.865,96.87c0-0.885,0.134-1.656,0.402-2.314c0.269-0.656,0.651-1.215,1.149-1.674
		s1.039-0.791,1.624-0.994c0.749-0.256,1.566-0.385,2.451-0.385c0.88,0,1.677,0.123,2.393,0.371c0.531,0.188,1.002,0.459,1.41,0.814
		s0.719,0.721,0.932,1.092c0.213,0.373,0.374,0.781,0.482,1.225c0.108,0.445,0.163,0.936,0.163,1.473
		c0,0.908-0.157,1.752-0.472,2.531c-0.231,0.58-0.571,1.094-1.019,1.545c-0.447,0.449-0.956,0.795-1.526,1.035
		c-0.783,0.324-1.677,0.486-2.683,0.486c-1.088,0-2.021-0.197-2.803-0.59c-0.78-0.395-1.394-0.977-1.838-1.744
		C257.088,98.972,256.865,98.015,256.865,96.87z M259.099,96.442c0,1.125,0.154,2.057,0.464,2.795
		c0.31,0.736,0.706,1.258,1.189,1.562s1.054,0.457,1.711,0.457c0.609,0,1.154-0.146,1.635-0.436
		c0.481-0.291,0.858-0.781,1.132-1.473c0.272-0.691,0.409-1.529,0.409-2.516c0-0.676-0.073-1.295-0.221-1.855
		s-0.359-1.039-0.635-1.434c-0.275-0.393-0.601-0.693-0.976-0.902c-0.374-0.207-0.871-0.311-1.489-0.311
		c-0.706,0-1.307,0.164-1.803,0.496c-0.495,0.33-0.855,0.82-1.08,1.469C259.211,94.942,259.099,95.659,259.099,96.442z"/>
	<path fill="#FFFFFF" d="M269.213,101.821v-0.615c0.546-0.039,0.87-0.078,0.972-0.117c0.058-0.02,0.104-0.053,0.138-0.102
		c0.043-0.062,0.072-0.154,0.087-0.275c0.033-0.275,0.062-0.877,0.087-1.805c0.015-0.449,0.021-1.223,0.021-2.32
		c0-0.982-0.007-1.85-0.021-2.607c-0.015-0.756-0.046-1.207-0.095-1.352c-0.02-0.068-0.05-0.119-0.091-0.156
		s-0.119-0.064-0.235-0.084c-0.319-0.053-0.606-0.084-0.862-0.094v-0.617c0.995,0.029,1.682,0.045,2.059,0.045
		c0.498,0,0.998-0.016,1.501-0.045l0.639,1.438l0.507,1.086l2.307,4.758c0.492-0.953,0.862-1.691,1.109-2.219l0.957-2.01
		c0.531-1.121,0.856-1.811,0.975-2.068c0.119-0.26,0.253-0.588,0.402-0.984c0.634,0.035,1.04,0.051,1.219,0.051l2.161-0.051v0.617
		h-0.102c-0.488-0.004-0.798,0.053-0.929,0.17c-0.13,0.119-0.195,0.348-0.195,0.686c0,0.402-0.003,0.705-0.008,0.914l-0.036,2.037
		v2.545c0,0.619,0.003,0.982,0.008,1.088c0.038,0.613,0.072,0.99,0.102,1.131c0.014,0.068,0.04,0.123,0.079,0.164
		s0.095,0.072,0.167,0.094s0.377,0.049,0.914,0.084v0.615l-2.313-0.043l-2.263,0.043v-0.615c0.6-0.02,0.941-0.055,1.026-0.105
		s0.145-0.166,0.182-0.344c0.036-0.18,0.054-0.779,0.054-1.799v-5.279l-1.682,3.4l-0.805,1.689c-0.213,0.445-0.513,1.09-0.899,1.938
		c-0.237,0.512-0.423,0.926-0.559,1.238h-0.493c-0.174-0.406-0.425-0.961-0.754-1.668c-0.561-1.207-0.986-2.109-1.276-2.703
		l-1.907-3.895v3.561c0,0.594,0.009,1.301,0.025,2.121c0.018,0.818,0.035,1.283,0.055,1.393c0.02,0.107,0.05,0.188,0.091,0.234
		c0.041,0.049,0.113,0.09,0.218,0.123c0.104,0.035,0.399,0.066,0.888,0.096v0.615c-0.541-0.029-1.095-0.043-1.66-0.043
		C270.235,101.778,269.647,101.792,269.213,101.821z"/>
	<path fill="#FFFFFF" d="M285.07,101.821v-0.391c0.29-0.135,0.527-0.275,0.711-0.422c0.029-0.203,0.053-0.531,0.072-0.984
		c0.039-0.832,0.059-1.438,0.059-1.814v-3.262c0-0.127-0.008-0.598-0.022-1.414c-0.015-0.547-0.048-0.881-0.102-1
		c-0.023-0.049-0.061-0.086-0.108-0.109c-0.131-0.059-0.479-0.102-1.044-0.131v-0.617l1.682,0.037
		c0.334,0.006,0.653,0.008,0.957,0.008c0.663,0,1.4-0.008,2.212-0.021l1.472-0.037c0.175,0,0.527,0.01,1.059,0.029
		c0.049,0,0.129,0.014,0.239,0.043l0.051,0.094l-0.138,1.045c-0.005,0.072-0.028,0.42-0.072,1.045h-0.565
		c-0.01-0.57-0.031-0.922-0.065-1.053c-0.02-0.066-0.048-0.115-0.087-0.145c-0.062-0.043-0.256-0.082-0.58-0.115
		c-0.479-0.055-0.947-0.08-1.406-0.08c-0.431,0-0.87,0.018-1.32,0.051c-0.067,0.547-0.102,1.24-0.102,2.08v1.486
		c0.329,0.025,0.672,0.037,1.03,0.037c0.11,0,0.512-0.01,1.203-0.029c0.261-0.004,0.415-0.021,0.461-0.051s0.08-0.08,0.104-0.152
		c0.059-0.184,0.092-0.49,0.102-0.92h0.588l-0.029,1.594l0.029,1.588h-0.624c0.005-0.561-0.031-0.906-0.108-1.035
		c-0.059-0.098-0.162-0.158-0.312-0.182c-0.334-0.053-0.762-0.08-1.284-0.08c-0.469,0-0.855,0.014-1.16,0.043v3.074
		c0,0.344,0.008,0.639,0.022,0.885c0.391,0.029,0.855,0.043,1.392,0.043c0.522,0,1.005-0.016,1.446-0.051
		c0.442-0.033,0.715-0.082,0.816-0.145c0.033-0.02,0.065-0.062,0.094-0.131c0.087-0.23,0.179-0.672,0.275-1.318h0.595
		c-0.106,0.957-0.159,1.744-0.159,2.363l-0.095,0.094c-0.309,0.035-0.749,0.051-1.319,0.051l-1.167-0.021
		c-1.151-0.014-1.943-0.021-2.379-0.021C287.376,101.778,286.569,101.792,285.07,101.821z"/>
	<path fill="#FFFFFF" d="M301.126,94.331h-0.609c-0.01-0.561-0.033-0.957-0.072-1.189c-0.149-0.211-0.409-0.4-0.779-0.564
		s-0.784-0.246-1.243-0.246c-0.658,0-1.167,0.164-1.526,0.496c-0.36,0.33-0.54,0.719-0.54,1.164
		c0.004,0.318,0.058,0.578,0.159,0.775c0.102,0.199,0.246,0.355,0.435,0.471c0.188,0.117,0.467,0.223,0.834,0.32
		c0.28,0.057,0.671,0.129,1.171,0.217c0.501,0.088,0.826,0.148,0.976,0.182c0.392,0.102,0.708,0.223,0.95,0.365
		c0.241,0.143,0.434,0.309,0.576,0.494s0.26,0.42,0.352,0.703s0.138,0.6,0.138,0.953c0,0.619-0.128,1.162-0.384,1.631
		c-0.193,0.354-0.462,0.676-0.806,0.969c-0.343,0.293-0.695,0.512-1.059,0.656c-0.58,0.232-1.275,0.348-2.088,0.348
		c-0.595,0-1.124-0.055-1.588-0.166s-0.975-0.303-1.53-0.572c0.15-0.553,0.228-1.391,0.232-2.518h0.609
		c-0.01,0.348,0.017,0.781,0.079,1.299c0.184,0.299,0.498,0.562,0.943,0.789c0.444,0.229,0.93,0.342,1.457,0.342
		c0.459,0,0.869-0.08,1.229-0.242c0.36-0.162,0.621-0.387,0.783-0.672s0.243-0.609,0.243-0.971c0-0.305-0.057-0.566-0.17-0.783
		c-0.114-0.219-0.292-0.393-0.533-0.523c-0.242-0.129-0.667-0.266-1.276-0.404c-0.875-0.184-1.45-0.318-1.726-0.4
		c-0.416-0.125-0.751-0.307-1.004-0.543c-0.254-0.236-0.444-0.523-0.569-0.859c-0.126-0.336-0.188-0.697-0.188-1.084
		c0-0.541,0.113-1.041,0.341-1.498c0.227-0.457,0.526-0.811,0.898-1.062c0.372-0.25,0.793-0.43,1.262-0.539s0.95-0.164,1.443-0.164
		c0.512,0,1.009,0.047,1.49,0.139c0.48,0.092,0.897,0.225,1.251,0.398l0.058,0.174c-0.067,0.314-0.117,0.623-0.148,0.926
		C301.163,93.44,301.141,93.839,301.126,94.331z"/>
</g>
</svg>
