<?xml version="1.0" encoding="utf-8"?>
<!-- Generator: Adobe Illustrator 16.0.0, SVG Export Plug-In . SVG Version: 6.00 Build 0)  -->
<!DOCTYPE svg PUBLIC "-//W3C//DTD SVG 1.1//EN" "http://www.w3.org/Graphics/SVG/1.1/DTD/svg11.dtd">
<svg version="1.1" id="Layer_1" xmlns="http://www.w3.org/2000/svg" xmlns:xlink="http://www.w3.org/1999/xlink" x="0px" y="0px"
	 width="677.023px" height="268.769px" viewBox="0 0 677.023 268.769" enable-background="new 0 0 677.023 268.769"
	 xml:space="preserve">
<g>
	<defs>
		<rect id="SVGID_1_" width="677.023" height="268.769"/>
	</defs>
	<clipPath id="SVGID_2_">
		<use xlink:href="#SVGID_1_"  overflow="visible"/>
	</clipPath>
	<path clip-path="url(#SVGID_2_)" fill="#FFCF2B" d="M406.019,134.456c0,10.926-14.235,18.116-34.938,23.867
		c-1.006,2.443-2.012,7.043-2.012,12.794c0,4.889,3.022,8.196,6.901,8.196c5.178,0,8.769-2.876,15.097-8.338
		c1.294,0,2.156,1.149,1.868,2.441c-8.77,10.783-16.965,13.083-23.004,13.083c-8.624,0-11.643-8.051-11.643-15.094
		c0-9.059,5.747-26.599,21.42-38.675c7.476-5.751,13.085-6.901,17.254-6.901C402.713,125.83,406.019,130.719,406.019,134.456
		 M383.159,137.187c-5.606,6.039-8.913,12.651-10.64,16.822c9.49-2.876,13.946-5.607,19.264-10.639
		c4.457-4.17,5.611-8.483,5.611-9.779c0-1.437-0.721-3.306-3.311-3.306C392.072,130.286,388.333,131.58,383.159,137.187"/>
	<path clip-path="url(#SVGID_2_)" fill="#FFCF2B" d="M296.068,183.615l20.45-63.115c0.493-1.805,0.167-2.296-2.46-2.625
		c-1.803-0.165-8.04-0.493-14.766-0.493c-11.81,0.328-22.146,3.282-28.216,7.055c-8.533,5.25-11.65,11.976-11.65,17.389
		c-0.163,4.43,2.46,6.399,5.25,7.711c2.46,1.148,2.627,2.954,2.627,5.415c0,3.607-3.116,6.89-7.546,6.89
		c-4.76,0-10.173-5.087-10.01-13.124c0.167-7.712,4.923-19.195,16.569-26.906c14.93-10.008,30.189-10.828,42.985-10.828
		c6.89,0,12.797,0.328,26.576,1.642c12.959,1.148,21.329,1.803,28.545,1.803c8.204,0,9.843-1.803,11.487-4.757
		c1.31,0,3.117,0.492,3.117,2.625c-4.431,6.89-12.308,9.68-21.987,9.68c-4.756,0-9.023-0.165-14.929-0.985
		c-4.92-0.657-9.186-1.313-10.826-1.477c-1.64-0.163-2.297,0.164-3.447,3.773l-13.286,41.179h18.046
		c8.693,0,12.14-1.147,15.75-7.875l2.134-4.266c0.982-1.149,4.1-0.984,4.263,0.328c-1.147,2.953-3.443,8.368-5.413,14.601
		c-2.134,6.07-3.773,12.305-4.757,16.078c-0.986,1.148-2.953,0.985-4.104-0.163l0.657-6.07c0.493-5.577-2.297-7.383-9.843-7.383
		h-18.373l-4.373,13.898c-2.396,9.04-9.997,30.027-12.881,36.907c-5.869,14.001-13.576,23.071-26.227,25.302
		c-3.085-1.294-2.701-4.205-1.906-6.101c5.268-0.586,8.87-1.864,13.844-13.729C285.743,215.557,289.871,203.054,296.068,183.615"/>
	<path clip-path="url(#SVGID_2_)" fill="#FFCF2B" d="M439.795,134.025c0,2.3-1.435,3.881-2.585,4.456
		c-1.006,0.289-1.871,0-2.732-1.15c-2.445-2.443-4.312-4.6-8.77-4.6c-4.172,0-5.895,3.594-5.895,5.75
		c0,3.02,0.718,6.04,4.889,13.083c3.591,6.04,5.747,9.632,5.463,15.96c-0.145,3.882-2.156,9.202-7.478,13.802
		c-3.739,3.308-9.058,5.174-14.521,5.174c-5.462,0-8.769-4.312-8.769-7.617c0-1.439,0.573-3.021,2.156-4.745
		c1.15-1.007,2.729-1.007,3.879,0c1.871,2.155,6.185,5.751,9.924,5.751c3.449,0,6.9-3.596,6.9-8.196
		c0-2.444-1.727-6.901-5.321-12.652c-3.735-6.037-5.03-10.926-5.03-13.369c0-5.608,2.44-9.777,8.625-15.097
		c4.171-3.594,8.771-4.744,10.64-4.744C436.489,125.83,439.795,130.43,439.795,134.025"/>
	<path clip-path="url(#SVGID_2_)" fill="#FFCF2B" d="M466.39,134.742l-12.94,37.813c-0.861,2.732-0.145,3.593,1.006,3.593
		c2.156,0,11.646-7.474,16.391-12.938c1.435,0,2.301,0.863,2.012,2.587c-8.051,11.934-21.563,20.703-27.604,20.703
		c-2.013,0-3.884-2.156-3.884-3.882c0-1.869,0.577-3.881,2.017-8.193l13.513-39.683h-11.213c-0.289-1.437,0.14-3.451,1.579-4.024
		l11.502-2.013l8.051-14.233c1.439-0.864,4.312-0.575,5.462,0.861l-4.168,14.091h15.67c1.011,1.437,0.145,4.312-1.723,5.318H466.39z
		"/>
	<path clip-path="url(#SVGID_2_)" fill="#FFCF2B" d="M497.292,137.761c0.718-1.581,0.718-2.73-0.288-2.73s-4.745,1.725-11.935,7.621
		c-1.294-0.146-2.156-1.295-1.867-2.445c7.907-9.057,18.976-14.377,23.721-14.377c1.005,0,1.728,0.862,2.301,1.439
		c0.864,0.861,0.864,2.156-0.862,6.324l-17.108,40.833c-0.577,1.437-0.721,3.162,0.434,3.162c2.439,0,10.062-5.032,14.947-10.64
		c1.439,0.144,2.16,1.149,2.16,2.443c-2.16,4.171-16.968,17.109-26.887,17.109c-0.717,0-1.583-0.431-2.3-1.293
		c-0.862-1.008-1.295-2.3-0.577-3.881L497.292,137.761z M515.695,96.787c0,4.458-3.166,9.059-7.622,9.059
		c-3.739,0-5.174-2.875-5.174-5.464c0-3.162,2.155-9.057,7.763-9.057C513.968,91.325,515.695,93.625,515.695,96.787"/>
	<path clip-path="url(#SVGID_2_)" fill="#FFCF2B" d="M531.072,138.337c0.862-2.731,0.862-4.168-1.006-4.168
		c-2.732,0-8.913,5.174-13.373,10.063c-1.291,0-2.3-1.294-2.156-2.444c4.602-6.469,14.235-15.958,22.72-15.958
		c3.306,0,6.611,4.17,4.456,9.49L529.35,167.38c-0.722,2.012-1.439,4.887-1.439,6.757c0,2.443,1.15,5.175,4.168,5.175
		c3.307,0,9.201-3.306,15.674-10.638c8.336-9.49,12.363-20.703,12.363-27.462c0-3.45-0.289-6.901-1.295-10.208
		c0.289-3.02,2.589-5.176,5.319-5.176c4.6,0,5.605,5.32,5.605,8.913c0,10.496-10.779,30.913-23.147,41.264
		c-10.924,9.057-18.977,10.494-22.426,10.494c-3.739,0-6.613-4.312-6.613-8.624c0-3.164,1.435-8.196,3.595-13.803L531.072,138.337z"
		/>
	<path clip-path="url(#SVGID_2_)" fill="#FFCF2B" d="M618.186,122.523c2.445-1.15,6.181,0.287,7.045,2.156
		c-2.158,5.32-14.667,37.094-19.268,50.177c-0.862,2.443-0.141,3.307,1.006,3.307c2.445,0,6.616-2.444,14.812-9.633
		c1.006,0,2.012,0.718,2.012,1.868c-6.04,8.051-16.247,16.103-24.154,16.103c-3.306,0-4.172-2.731-4.172-3.882
		c0-1.006,0.289-2.301,1.439-5.606l4.744-12.939l-0.429-0.144c-10.211,12.652-24.875,22.571-31.632,22.571
		c-4.027,0-6.328-4.024-6.328-8.052c0-3.307,3.166-14.808,12.656-27.891c6.9-9.488,13.081-15.239,18.976-18.547
		c5.607-3.162,9.202-4.17,12.941-4.17c1.579,0,2.588,0.433,3.45,0.864c0.572,0.286,2.155,1.581,2.874,3.019L618.186,122.523z
		 M593.167,138.913c-9.201,8.194-17.97,27.028-17.97,37.235c0,1.729,0.861,2.733,2.155,2.733c1.439,0,5.751-1.869,13.946-9.345
		c10.929-10.207,16.964-22.573,19.265-31.056c-1.006-2.73-3.45-5.176-7.186-5.176C599.928,133.305,597.627,134.886,593.167,138.913"
		/>
	<path clip-path="url(#SVGID_2_)" fill="#FFCF2B" d="M636.148,175.143c-1.15,3.306-1.006,4.744,0.573,4.744
		c3.162,0,9.923-7.045,16.534-14.521c1.436-0.143,2.302,0.575,2.302,2.013c-3.739,7.188-12.796,19.12-24.731,19.12
		c-4.312,0-5.606-2.011-5.606-4.312s0.722-4.89,3.163-12.222l14.724-43.849c3.447-10.065,2.012-11.501-0.145-12.509l-2.589-1.15
		c-0.721-0.576-0.721-1.87,0-2.301c2.589-1.006,11.502-3.737,18.115-4.312l0.721,0.862c-1.872,5.175-3.31,9.201-8.483,24.728
		L636.148,175.143z"/>
	<path clip-path="url(#SVGID_2_)" d="M300.111,90.517c0,4.625,0.295,4.97,2.559,5.364l1.378,0.246
		c0.394,0.295,0.344,1.427-0.05,1.722c-2.657-0.098-5.068-0.147-7.381-0.147c-2.362,0-4.822,0.049-7.48,0.147
		c-0.394-0.295-0.394-1.427,0-1.722l1.378-0.246c2.263-0.394,2.559-0.739,2.559-5.364V72.408c0-4.626-0.296-4.97-2.559-5.364
		l-1.378-0.246c-0.394-0.295-0.394-1.427,0-1.722c2.658,0.098,5.118,0.147,7.48,0.147c2.313,0,4.773-0.049,7.431-0.147
		c0.394,0.295,0.394,1.427,0,1.722l-1.378,0.246c-2.264,0.394-2.559,0.738-2.559,5.364V90.517z"/>
	<path clip-path="url(#SVGID_2_)" d="M347.644,89.336c0,3.199,0,6.299,0.1,7.923c-0.346,0.59-1.724,1.132-2.904,1.132
		c-0.049,0-1.673-2.51-3.986-5.364l-11.367-14.074c-2.805-3.543-4.478-5.561-5.364-6.299c-0.246,0.492-0.246,1.328-0.246,3.149
		v9.547c0,3.986,0.197,7.677,0.738,9.006c0.443,1.033,1.575,1.328,2.854,1.574l1.378,0.197c0.394,0.394,0.296,1.427,0,1.722
		c-2.657-0.098-4.626-0.147-6.594-0.147c-1.821,0-3.642,0.049-5.511,0.147c-0.296-0.295-0.394-1.328,0-1.722l0.836-0.147
		c1.329-0.296,2.264-0.591,2.707-1.624c0.492-1.329,0.689-5.02,0.689-9.006V72.851c0-2.706,0-3.494-0.345-4.183
		c-0.344-0.836-1.083-1.329-2.805-1.673l-1.378-0.197c-0.344-0.394-0.295-1.575,0.197-1.722c2.313,0.098,4.773,0.147,6.791,0.147
		c1.673,0,3.1-0.049,4.134-0.147c0.492,2.214,3.69,5.954,8.119,11.219l4.134,4.872c2.214,2.559,3.593,4.281,4.725,5.413
		c0.196-0.492,0.196-1.328,0.196-2.214v-6.791c0-3.986-0.196-7.676-0.738-9.006c-0.442-1.033-1.525-1.328-2.854-1.574l-1.328-0.197
		c-0.394-0.394-0.296-1.427,0-1.722c2.657,0.098,4.576,0.147,6.595,0.147c1.82,0,3.592-0.049,5.511-0.147
		c0.296,0.295,0.394,1.328,0,1.722l-0.885,0.148c-1.28,0.295-2.214,0.59-2.658,1.623c-0.541,1.33-0.738,5.02-0.738,9.006V89.336z"/>
	<path clip-path="url(#SVGID_2_)" d="M362.893,66.798c-0.394-0.394-0.394-1.575,0.147-1.722c1.674,0.098,3.791,0.147,6.202,0.147
		c1.624,0,3.05,0,4.821-0.147c0,3.051,1.724,6.053,3.889,10.679l3.248,6.938c0.49,0.984,1.967,3.789,2.656,5.019
		c0.641-1.181,1.428-2.706,2.756-5.61l2.51-5.413c2.412-5.068,3.444-7.381,4.526-11.613c2.265,0.197,3.79,0.147,5.266,0.147
		c1.625,0,3.888-0.049,5.66-0.147c0.541,0.295,0.541,1.23,0.146,1.722l-1.427,0.246c-2.018,0.394-3.002,0.935-3.002,3.544
		c0,10.136,0.099,15.451,0.394,21.651c0.1,2.264,0.296,3.396,2.215,3.691l1.574,0.197c0.395,0.394,0.395,1.525-0.098,1.722
		c-2.264-0.098-4.38-0.147-6.791-0.147c-2.214,0-4.921,0.049-7.283,0.147c-0.591-0.246-0.639-1.378-0.146-1.722l1.475-0.197
		c2.264-0.443,2.264-0.885,2.264-3.887l-0.098-12.795v-5.61h-0.098c-3.643,7.874-7.578,16.092-10.827,24.408
		c-0.246,0.197-0.59,0.345-0.984,0.345c-0.442,0-0.984-0.099-1.279-0.296c-1.919-6.102-7.775-18.059-10.53-24.457h-0.099
		c-0.196,3.199-0.296,5.118-0.345,7.677c-0.05,3.199-0.098,8.12-0.098,11.072c0,2.461,0.294,3.1,2.263,3.445l1.919,0.295
		c0.394,0.344,0.296,1.476-0.098,1.722c-1.821-0.098-3.938-0.147-5.808-0.147c-1.573,0-3.592,0.049-5.561,0.147
		c-0.64-0.197-0.64-1.476-0.196-1.722l0.886-0.147c2.511-0.493,2.657-0.739,2.952-3.789c0.246-2.412,0.492-6.693,0.787-11.368
		c0.197-3.297,0.345-7.283,0.345-9.941c0-2.804-1.082-3.444-3.051-3.887L362.893,66.798z"/>
	<path clip-path="url(#SVGID_2_)" d="M424.202,86.58c-1.182,0-1.329,0.049-1.624,0.984l-1.821,5.709
		c-0.295,0.984-0.344,1.378-0.344,1.771c0,0.296,0.394,0.591,1.771,0.837l1.477,0.246c0.295,0.344,0.394,1.476-0.099,1.722
		c-1.723-0.098-3.691-0.098-5.758-0.148c-1.673,0-2.805,0.148-5.067,0.148c-0.542-0.295-0.493-1.329-0.148-1.722l1.328-0.148
		c1.182-0.148,2.215-0.541,3.002-2.46c0.886-1.969,1.723-4.331,3.051-7.874l4.43-12.007c1.181-3.1,2.066-4.823,1.92-6.249
		c2.36-0.542,4.182-2.953,4.28-2.953c0.64,0,0.935,0.246,1.133,0.984c0.393,1.427,0.982,3.248,2.214,6.742l6.691,19.29
		c1.033,2.953,1.477,4.035,3.297,4.379l1.87,0.296c0.296,0.246,0.394,1.427-0.049,1.722c-2.362-0.098-5.019-0.148-7.578-0.148
		c-2.461,0-4.38,0.05-6.644,0.148c-0.541-0.295-0.64-1.329-0.099-1.722l1.575-0.246c1.132-0.197,1.328-0.541,1.328-0.837
		c0-0.344-0.344-1.525-0.934-3.346l-1.33-4.232c-0.246-0.787-0.64-0.886-2.361-0.886H424.202z M429.468,83.972
		c1.132,0,1.427-0.147,0.983-1.427l-1.279-3.986c-0.688-2.116-1.328-4.134-1.771-5.167c-0.493,1.082-1.28,3.149-2.019,5.413
		l-1.229,3.691c-0.492,1.329-0.197,1.476,1.033,1.476H429.468z"/>
	<path clip-path="url(#SVGID_2_)" d="M484.43,89.336c0,3.199,0,6.299,0.099,7.923c-0.345,0.59-1.723,1.132-2.904,1.132
		c-0.048,0-1.673-2.51-3.985-5.364l-11.367-14.074c-2.806-3.543-4.479-5.561-5.363-6.299c-0.247,0.492-0.247,1.328-0.247,3.149
		v9.547c0,3.986,0.198,7.677,0.738,9.006c0.442,1.033,1.574,1.328,2.854,1.574l1.377,0.197c0.395,0.394,0.296,1.427,0,1.722
		c-2.657-0.098-4.625-0.147-6.594-0.147c-1.82,0-3.642,0.049-5.512,0.147c-0.295-0.295-0.394-1.328,0-1.722l0.838-0.147
		c1.328-0.296,2.263-0.591,2.707-1.624c0.49-1.329,0.688-5.02,0.688-9.006V72.851c0-2.706,0-3.494-0.345-4.183
		c-0.343-0.836-1.082-1.329-2.804-1.673l-1.379-0.197c-0.345-0.394-0.295-1.575,0.197-1.722c2.313,0.098,4.773,0.147,6.79,0.147
		c1.674,0,3.102-0.049,4.134-0.147c0.492,2.214,3.691,5.954,8.12,11.219l4.134,4.872c2.215,2.559,3.593,4.281,4.724,5.413
		c0.198-0.492,0.198-1.328,0.198-2.214v-6.791c0-3.986-0.198-7.676-0.739-9.006c-0.443-1.033-1.525-1.328-2.854-1.574l-1.328-0.197
		c-0.395-0.394-0.296-1.427,0-1.722c2.657,0.098,4.576,0.147,6.595,0.147c1.819,0,3.591-0.049,5.511-0.147
		c0.295,0.295,0.394,1.328,0,1.722l-0.885,0.148c-1.281,0.295-2.215,0.59-2.658,1.623c-0.542,1.33-0.738,5.02-0.738,9.006V89.336z"
		/>
	<path clip-path="url(#SVGID_2_)" d="M533.139,73.195c0-4.97-0.099-5.512-2.166-5.807l-1.524-0.196
		c-0.443-0.247-0.443-1.329,0.098-1.674c3.248-0.246,7.086-0.443,11.367-0.443c4.183,0,6.938,0.493,9.006,1.28
		c3.002,1.132,6.003,3.74,6.003,8.513c0,8.071-8.119,9.251-10.727,9.251c-0.591,0-1.034,0-1.575-0.049
		c-0.394-0.246-0.492-1.033-0.147-1.328c4.084-1.28,4.921-4.183,4.921-7.825c0-3.641-1.87-7.578-6.299-7.578
		c-1.821,0-1.92,0.542-1.92,2.51v20.766c0,4.577,0.296,4.921,2.51,5.315l1.575,0.246c0.541,0.246,0.541,1.378,0,1.673
		c-2.756-0.098-5.167-0.148-7.529-0.148s-4.724,0.05-7.382,0.148c-0.541-0.295-0.64-1.427-0.098-1.673l1.378-0.246
		c2.214-0.394,2.51-0.738,2.51-5.315V73.195z"/>
	<path clip-path="url(#SVGID_2_)" d="M570.78,86.58c-1.182,0-1.329,0.049-1.624,0.984l-1.821,5.709
		c-0.295,0.984-0.344,1.378-0.344,1.771c0,0.296,0.394,0.591,1.771,0.837l1.477,0.246c0.295,0.344,0.394,1.476-0.099,1.722
		c-1.723-0.098-3.691-0.098-5.758-0.148c-1.673,0-2.805,0.148-5.067,0.148c-0.542-0.295-0.493-1.329-0.148-1.722l1.328-0.148
		c1.182-0.148,2.215-0.541,3.002-2.46c0.886-1.969,1.723-4.331,3.051-7.874l4.429-12.007c1.182-3.1,2.067-4.823,1.921-6.249
		c2.36-0.542,4.182-2.953,4.28-2.953c0.64,0,0.935,0.246,1.133,0.984c0.393,1.427,0.982,3.248,2.214,6.742l6.691,19.29
		c1.033,2.953,1.477,4.035,3.297,4.379l1.87,0.296c0.296,0.246,0.394,1.427-0.049,1.722c-2.362-0.098-5.019-0.148-7.578-0.148
		c-2.461,0-4.38,0.05-6.644,0.148c-0.541-0.295-0.64-1.329-0.099-1.722l1.575-0.246c1.132-0.197,1.328-0.541,1.328-0.837
		c0-0.344-0.344-1.525-0.934-3.346l-1.33-4.232c-0.246-0.787-0.64-0.886-2.361-0.886H570.78z M576.046,83.972
		c1.132,0,1.427-0.147,0.983-1.427l-1.279-3.986c-0.688-2.116-1.328-4.134-1.771-5.167c-0.493,1.082-1.28,3.149-2.019,5.413
		l-1.229,3.691c-0.492,1.329-0.197,1.476,1.033,1.476H576.046z"/>
	<path clip-path="url(#SVGID_2_)" d="M605.518,73.195c0-4.92-0.099-5.462-2.166-5.757l-1.328-0.197
		c-0.492-0.246-0.492-1.476,0.099-1.722c3.69-0.246,7.529-0.443,12.203-0.443c4.184,0,7.775,0.64,9.646,1.771
		c2.854,1.674,4.33,4.134,4.33,7.284c0,4.379-2.952,6.249-5.216,7.381c-0.492,0.246-0.492,0.541-0.246,1.082
		c3.248,6.595,5.266,10.285,7.628,12.303c1.279,1.033,2.56,1.329,3.297,1.378c0.442,0.246,0.442,0.984,0.196,1.279
		c-0.787,0.345-2.361,0.443-3.888,0.443c-4.526,0-7.38-1.624-9.545-5.167c-1.576-2.608-2.707-5.019-3.84-7.627
		c-0.59-1.329-1.378-1.723-2.608-1.723c-1.721,0-1.82,0.099-1.82,1.083v6.052c0,4.528,0.295,4.872,2.51,5.266l1.329,0.246
		c0.345,0.246,0.345,1.427,0,1.722c-2.608-0.098-4.872-0.147-7.234-0.147c-2.459,0-4.625,0.049-7.185,0.147
		c-0.394-0.295-0.394-1.476,0-1.722l1.329-0.246c2.214-0.394,2.51-0.738,2.51-5.266V73.195z M612.259,79.445
		c0,1.722,0.147,1.87,3.051,1.87c1.771,0,2.806-0.443,3.74-1.378c0.837-0.836,1.772-2.411,1.772-5.314
		c0-4.429-2.609-7.283-6.447-7.283c-2.017,0-2.017,0.147-2.116,2.509V79.445z"/>
	<path clip-path="url(#SVGID_2_)" d="M653.098,78.313c0,1.624,0.296,1.821,0.886,1.821c1.034,0,3.002-1.87,3.789-2.854
		c2.608-3.15,5.02-6.053,6.596-8.366c0.441-0.64,0.639-1.082,0.639-1.279c0-0.197-0.197-0.492-0.837-0.64l-1.132-0.197
		c-0.541-0.344-0.442-1.526,0.197-1.722c2.51,0.098,4.33,0.147,6.102,0.147c1.822,0,3.987-0.049,5.955-0.147
		c0.59,0.196,0.64,1.328,0.246,1.722c-1.723,0.197-3.199,0.443-4.232,0.886c-1.969,0.787-4.035,2.706-7.283,6.298l-2.264,2.56
		c-0.492,0.541-0.64,0.935-0.64,1.131c0,0.246,0.295,0.837,1.771,3.051c2.461,3.691,5.364,8.415,8.71,12.844
		c1.329,1.772,2.265,2.067,3.643,2.313l1.574,0.246c0.295,0.443,0.295,1.476-0.148,1.722c-2.46-0.098-4.822-0.147-7.086-0.147
		c-2.509,0-4.97,0.049-7.726,0.147c-0.64-0.197-0.64-1.427-0.099-1.722l1.231-0.295c0.541-0.099,0.837-0.295,0.837-0.492
		c0-0.197-0.1-0.542-0.396-0.985c-0.295-0.442-2.361-3.641-2.854-4.379l-2.608-3.986c-1.771-2.707-2.608-3.888-3.69-3.888
		c-1.132,0-1.182,0.689-1.182,3.346v5.167c0,4.577,0.296,4.922,2.51,5.315l1.378,0.197c0.394,0.344,0.394,1.427,0,1.722
		c-2.607-0.098-5.068-0.147-7.431-0.147c-2.214,0-4.773,0.049-7.381,0.147c-0.393-0.295-0.393-1.427,0-1.722l1.378-0.197
		c2.214-0.393,2.51-0.738,2.51-5.315V72.31c0-4.577-0.296-4.921-2.51-5.315l-1.378-0.197c-0.542-0.295-0.542-1.427,0-1.722
		c2.46,0.098,4.921,0.147,7.381,0.147c2.362,0,4.823-0.049,7.431-0.147c0.443,0.295,0.443,1.427,0,1.722l-1.378,0.197
		c-2.214,0.394-2.51,0.738-2.51,5.315V78.313z"/>
	<path clip-path="url(#SVGID_2_)" d="M206.253,35.418C203.076,24.624,198.955,12.881,193.725,0
		c-69.206,28.098-102.532,106.978-74.434,176.185C112.718,113.599,149.942,56.514,206.253,35.418"/>
	<path clip-path="url(#SVGID_2_)" d="M197.202,184.005c12.488,15.275,15.446,35.212,9.625,52.638l0.003,0.002
		c15.594-22.578,14.982-50.666-3.485-68.754c-5.681,2.342-11.732,4.033-18.102,5.252
		C189.636,176.084,193.681,179.699,197.202,184.005"/>
	<path clip-path="url(#SVGID_2_)" fill="#FFCF2B" d="M119.291,176.184l60.752,92.585c25.566-16.775,32.692-51.102,15.916-76.668
		c-4.964-7.565-11.488-13.471-18.844-17.666c45.764-5.91,77.419-30.8,77.419-133.494
		C179.841,40.941,119.291,101.491,119.291,176.184"/>
	<path clip-path="url(#SVGID_2_)" fill="#FFCF2B" d="M7.431,106.303c0,0,1.887-0.296,5.23-0.405c1.668-0.024,3.702-0.071,6.03,0.036
		c1.165,0.057,2.404,0.118,3.711,0.181c1.305,0.101,2.667,0.296,4.095,0.451c2.869,0.249,5.908,0.947,9.164,1.476
		c3.181,0.841,6.644,1.399,10.024,2.657c1.711,0.563,3.449,1.136,5.21,1.716c1.714,0.704,3.45,1.415,5.199,2.133
		c3.555,1.32,6.899,3.237,10.351,4.929c3.397,1.8,6.536,4.045,9.761,6.014c3.08,2.19,5.99,4.515,8.867,6.672
		c2.754,2.311,5.224,4.771,7.641,7.003c1.237,1.089,2.317,2.272,3.329,3.446c1.03,1.154,2.025,2.271,2.98,3.342
		c1.896,2.153,3.719,4.05,5,6.009c1.361,1.887,2.548,3.533,3.525,4.887c1.922,2.723,3.021,4.277,3.021,4.277
		s-1.241-1.447-3.412-3.978c-1.069-1.271-2.368-2.815-3.858-4.586c-1.413-1.833-3.371-3.581-5.32-5.645
		c-0.991-1.016-2.025-2.073-3.094-3.168c-1.05-1.112-2.167-2.229-3.438-3.248c-2.465-2.11-5.064-4.335-7.753-6.637
		c-2.863-2.077-5.754-4.318-8.806-6.422c-3.196-1.883-6.306-4.032-9.654-5.754c-3.355-1.704-6.605-3.64-10.07-4.981
		c-1.705-0.731-3.397-1.455-5.068-2.171c-1.718-0.594-3.416-1.181-5.086-1.759c-0.835-0.289-1.663-0.576-2.484-0.86
		c-0.835-0.238-1.661-0.473-2.48-0.706c-1.636-0.472-3.237-0.934-4.796-1.384c-3.172-0.661-6.145-1.49-8.957-1.862
		c-2.796-0.49-5.372-0.845-7.67-1.1c-2.293-0.278-4.308-0.38-5.965-0.48c-1.66-0.049-2.967-0.123-3.858-0.101
		C7.907,106.272,7.431,106.303,7.431,106.303"/>
	<path clip-path="url(#SVGID_2_)" fill="#FFCF2B" d="M0,137.33c0,0,1.77-0.718,5-1.585c1.619-0.402,3.59-0.912,5.88-1.337
		c1.147-0.21,2.368-0.433,3.656-0.669c1.293-0.198,2.663-0.319,4.09-0.493c2.85-0.41,5.968-0.422,9.259-0.649
		c3.289,0.095,6.788-0.15,10.366,0.306c1.793,0.159,3.617,0.321,5.463,0.485c1.83,0.295,3.682,0.593,5.548,0.893
		c3.762,0.476,7.455,1.582,11.202,2.444c3.717,0.979,7.285,2.451,10.873,3.634c3.497,1.431,6.86,3.033,10.153,4.479
		c3.208,1.623,6.173,3.457,9.035,5.078c1.452,0.779,2.773,1.686,4.026,2.599c1.266,0.89,2.489,1.75,3.663,2.576
		c2.335,1.665,4.543,3.097,6.236,4.713c1.755,1.527,3.285,2.859,4.545,3.957c2.491,2.212,3.915,3.476,3.915,3.476
		s-1.537-1.126-4.228-3.096c-1.331-0.995-2.947-2.203-4.801-3.588c-1.792-1.463-4.097-2.721-6.464-4.285
		c-1.197-0.763-2.444-1.559-3.734-2.38c-1.276-0.844-2.618-1.679-4.088-2.38c-2.88-1.494-5.918-3.069-9.06-4.699
		c-3.261-1.37-6.586-2.895-10.037-4.248c-3.54-1.106-7.058-2.491-10.71-3.405c-3.655-0.896-7.26-2.041-10.939-2.559
		c-1.827-0.323-3.639-0.644-5.429-0.96c-1.809-0.188-3.596-0.373-5.353-0.556c-0.879-0.092-1.751-0.182-2.615-0.271
		c-0.867-0.042-1.725-0.082-2.575-0.123c-1.701-0.087-3.366-0.173-4.986-0.256c-3.239,0.078-6.322-0.052-9.146,0.225
		c-2.834,0.16-5.423,0.401-7.718,0.675c-2.296,0.252-4.282,0.611-5.919,0.892c-1.627,0.33-2.916,0.556-3.779,0.778
		C0.457,137.193,0,137.33,0,137.33"/>
	<path clip-path="url(#SVGID_2_)" d="M333.002,208.607c0,2.276-1.993,3.226-2.91,3.796c1.677,0.885,3.353,2.657,4.713,4.428
		c0.696-1.202,1.139-2.088,1.677-3.353c0.442-1.013,0.791-1.93,0.791-2.214s-0.317-0.476-0.854-0.569l-0.57-0.095
		c-0.284-0.19-0.253-0.981,0.095-1.108h1.297c2.435,0,4.585-0.126,6.231-0.188c0.348,0.126,0.411,0.917,0.063,1.106l-0.854,0.126
		c-1.043,0.159-1.739,0.633-2.119,0.95c-0.696,0.538-1.487,1.802-2.372,3.163c-0.664,0.949-1.55,2.372-1.898,2.878
		c-0.158,0.221-0.38,0.538-0.443,0.823h0.063c0-0.127,0.064,0.157,0.538,0.917c1.107,1.455,1.93,3.32,4.681,3.32
		c1.139,0,2.373-0.538,2.847-0.854c0.253,0.095,0.444,0.506,0.38,0.791c-0.791,0.949-2.942,2.53-6.295,2.53
		c-2.214,0-3.511-0.695-3.922-1.359c-0.221-0.38-0.727-1.044-1.044-1.741c-1.739,1.646-3.447,3.101-6.389,3.101
		c-4.207,0-6.769-2.403-6.769-5.661c0-3.67,3.257-5.504,4.902-6.2c-1.138-0.886-2.056-2.278-2.056-3.796
		c0-3.195,2.721-5.03,5.283-5.03C331.137,204.368,333.002,206.235,333.002,208.607 M328.417,222.493
		c2.372,0,3.827-1.897,3.827-1.993c0-0.094-0.095-0.253-0.506-0.917c-1.233-2.15-3.384-3.89-4.713-4.745
		c-0.38-0.253-0.601-0.441-0.759-0.441c-0.158,0-2.119,1.264-2.119,3.796C324.146,220.879,326.107,222.493,328.417,222.493
		 M328.131,205.759c-1.075,0-1.898,0.98-1.898,2.311c0,2.245,2.183,3.321,2.436,3.384c0.316-0.127,1.36-1.455,1.36-3.29
		C330.029,206.993,329.429,205.759,328.131,205.759"/>
	<path clip-path="url(#SVGID_2_)" d="M363.217,206.108c0-0.76,0-0.917-0.76-0.917h-1.961c-2.31,0-2.973,1.266-3.922,3.573
		c-0.379,0.191-0.981,0.127-1.17-0.284c0.664-2.183,0.821-4.144,1.043-5.378c0.127-0.095,0.286-0.157,0.442-0.157
		c0.158,0,0.316,0.031,0.443,0.127c0.158,0.538,0.253,0.664,2.657,0.664h11.767c2.088,0,2.563-0.031,2.847-0.695
		c0.128-0.064,0.222-0.096,0.411-0.096c0.19,0,0.411,0.127,0.475,0.222c-0.316,1.075-0.537,3.637-0.475,5.44
		c-0.157,0.284-1.012,0.349-1.17,0.096c-0.538-2.025-0.98-3.512-3.354-3.512h-1.897c-0.759,0-0.854,0.095-0.854,0.917v13.949
		c0,2.942,0.19,3.163,1.613,3.386l1.266,0.157c0.222,0.19,0.222,0.917,0,1.107c-2.056-0.064-3.637-0.095-5.061-0.095
		c-1.519,0-3.164,0.03-5.378,0.095c-0.253-0.19-0.253-0.917,0-1.107l1.424-0.157c1.424-0.223,1.613-0.443,1.613-3.386V206.108z"/>
	<path clip-path="url(#SVGID_2_)" d="M399.976,214.08c0,6.895-4.618,11.039-11.418,11.039c-6.358,0-10.977-4.175-10.977-10.787
		c0-6.262,4.682-11.102,11.292-11.102C395.452,203.23,399.976,207.659,399.976,214.08 M388.62,204.684
		c-3.891,0-5.979,3.639-5.979,8.921c0,3.858,1.36,10.059,6.517,10.059c4.145,0,5.757-4.049,5.757-9.173
		C394.915,209.081,392.542,204.684,388.62,204.684"/>
	<path clip-path="url(#SVGID_2_)" d="M406.589,208.291c0-2.941-0.189-3.163-1.612-3.416l-0.791-0.158
		c-0.254-0.19-0.285-0.887,0.062-1.075c1.518,0.062,3.1,0.094,4.618,0.094c1.55,0,3.1-0.031,4.619-0.094
		c0.252,0.188,0.252,0.885,0,1.075l-0.761,0.127c-1.423,0.284-1.613,0.506-1.613,3.447v7.308c0,3.7,0.413,7.781,5.22,7.781
		c4.049,0,5.282-3.543,5.282-7.876v-3.828c0-2.562-0.126-4.966-0.475-5.788c-0.283-0.664-0.98-0.855-1.834-1.013l-0.854-0.158
		c-0.253-0.253-0.189-0.887,0-1.075c1.708,0.062,2.942,0.094,4.239,0.094c1.171,0,2.34-0.031,3.543-0.094
		c0.188,0.188,0.253,0.822,0,1.075l-0.57,0.127c-0.822,0.188-1.423,0.38-1.708,1.044c-0.347,0.822-0.474,3.226-0.474,5.788v3.543
		c0,2.973-0.285,5.692-2.025,7.623c-1.391,1.485-3.701,2.276-6.262,2.276c-2.405,0-4.556-0.379-6.265-1.771
		c-1.645-1.36-2.34-3.701-2.34-7.149V208.291z"/>
	<path clip-path="url(#SVGID_2_)" d="M432.053,208.859c0-3.163-0.062-3.51-1.393-3.7l-0.854-0.127
		c-0.316-0.158-0.316-0.949,0.063-1.105c2.372-0.158,4.839-0.285,7.844-0.285c2.69,0,4.998,0.411,6.2,1.138
		c1.835,1.076,2.784,2.658,2.784,4.683c0,2.814-1.898,4.017-3.354,4.743c-0.315,0.158-0.315,0.35-0.158,0.696
		c2.088,4.239,3.386,6.612,4.903,7.909c0.822,0.664,1.646,0.853,2.119,0.885c0.284,0.159,0.284,0.632,0.126,0.823
		c-0.506,0.221-1.517,0.284-2.499,0.284c-2.909,0-4.744-1.044-6.136-3.321c-1.013-1.676-1.74-3.227-2.468-4.903
		c-0.379-0.854-0.886-1.106-1.677-1.106c-1.106,0-1.17,0.062-1.17,0.695v3.892c0,2.91,0.189,3.131,1.613,3.384l0.854,0.159
		c0.221,0.157,0.221,0.917,0,1.105c-1.677-0.062-3.132-0.095-4.65-0.095c-1.581,0-2.974,0.032-4.618,0.095
		c-0.253-0.188-0.253-0.948,0-1.105l0.854-0.159c1.424-0.253,1.613-0.474,1.613-3.384V208.859z M436.386,212.876
		c0,1.107,0.095,1.202,1.961,1.202c1.14,0,1.804-0.284,2.404-0.886c0.538-0.538,1.139-1.549,1.139-3.416
		c0-2.846-1.677-4.681-4.144-4.681c-1.297,0-1.297,0.094-1.36,1.612V212.876z"/>
	<path clip-path="url(#SVGID_2_)" d="M485.131,214.08c0,6.895-4.618,11.039-11.418,11.039c-6.358,0-10.977-4.175-10.977-10.787
		c0-6.262,4.682-11.102,11.292-11.102C480.607,203.23,485.131,207.659,485.131,214.08 M473.775,204.684
		c-3.891,0-5.979,3.639-5.979,8.921c0,3.858,1.36,10.059,6.517,10.059c4.145,0,5.757-4.049,5.757-9.173
		C480.07,209.081,477.697,204.684,473.775,204.684"/>
	<path clip-path="url(#SVGID_2_)" d="M496.425,212.212c0,0.854,0.032,0.949,0.886,0.949h2.436c1.677,0,1.993-0.221,2.341-1.771
		l0.158-0.761c0.222-0.283,1.013-0.253,1.202,0.032c-0.063,1.013-0.095,2.184-0.095,3.385c0,1.171,0.031,2.341,0.095,3.289
		c-0.189,0.285-0.98,0.316-1.202,0.032l-0.158-0.76c-0.348-1.518-0.664-1.771-2.341-1.771h-2.436c-0.854,0-0.886,0.096-0.886,0.949
		v4.271c0,2.94,0.19,3.163,1.613,3.384l1.171,0.159c0.222,0.188,0.222,0.917,0,1.105c-1.961-0.062-3.512-0.095-5.029-0.095
		c-1.455,0-3.037,0.032-4.935,0.095c-0.253-0.188-0.253-0.917,0-1.105l1.044-0.159c1.423-0.221,1.614-0.443,1.614-3.384V208.29
		c0-2.94-0.191-3.163-1.614-3.446l-0.633-0.096c-0.285-0.189-0.285-0.979,0.063-1.106c1.359,0.062,2.941,0.094,4.46,0.094h6.643
		c2.024,0,3.828-0.031,4.27-0.094c0,0.538,0,2.814,0.063,4.934c-0.126,0.348-0.822,0.38-1.202,0.127
		c-0.347-1.297-0.601-2.056-0.917-2.468c-0.538-0.664-1.486-1.043-3.1-1.043h-2.468c-1.044,0-1.044,0.062-1.044,1.296V212.212z"/>
	<path clip-path="url(#SVGID_2_)" d="M527.109,214.584c-1.297,0-1.329,0.032-1.329,0.919v4.555c0,2.94,0.19,3.163,1.613,3.416
		l1.013,0.127c0.253,0.188,0.253,0.917,0,1.105c-1.803-0.062-3.385-0.095-4.809-0.095c-1.518,0-3.099,0.032-4.713,0.095
		c-0.253-0.188-0.253-0.917,0-1.105l0.76-0.096c1.423-0.284,1.613-0.507,1.613-3.447V208.29c0-2.94-0.19-3.163-1.613-3.446
		l-0.76-0.096c-0.253-0.189-0.253-0.918,0-1.106c1.55,0.062,3.195,0.094,4.713,0.094c1.424,0,3.006-0.031,4.398-0.094
		c0.253,0.188,0.253,0.917,0,1.106l-0.664,0.096c-1.361,0.283-1.552,0.506-1.552,3.446v3.67c0,0.917,0.032,0.948,1.329,0.948h6.579
		c1.328,0,1.328-0.031,1.328-0.948v-3.67c0-2.94-0.158-3.163-1.612-3.416l-0.854-0.126c-0.253-0.189-0.253-0.918,0-1.106
		c1.74,0.062,3.29,0.094,4.808,0.094c1.55,0,3.005-0.031,4.46-0.094c0.254,0.188,0.254,0.917,0,1.106l-0.632,0.096
		c-1.455,0.283-1.645,0.506-1.645,3.446v11.769c0,2.94,0.189,3.163,1.645,3.416l0.759,0.127c0.253,0.188,0.253,0.917,0,1.105
		c-1.582-0.062-3.132-0.095-4.587-0.095c-1.581,0-3.131,0.032-4.648,0.095c-0.254-0.188-0.254-0.917,0-1.105l0.695-0.096
		c1.454-0.284,1.612-0.507,1.612-3.447v-4.555c0-0.887,0-0.919-1.328-0.919H527.109z"/>
	<path clip-path="url(#SVGID_2_)" d="M568.073,214.08c0,6.895-4.618,11.039-11.418,11.039c-6.358,0-10.977-4.175-10.977-10.787
		c0-6.262,4.682-11.102,11.292-11.102C563.55,203.23,568.073,207.659,568.073,214.08 M556.718,204.684
		c-3.891,0-5.979,3.639-5.979,8.921c0,3.858,1.36,10.059,6.517,10.059c4.145,0,5.757-4.049,5.757-9.173
		C563.013,209.081,560.64,204.684,556.718,204.684"/>
	<path clip-path="url(#SVGID_2_)" d="M572.312,204.748c-0.253-0.253-0.253-1.013,0.095-1.106c1.076,0.062,2.437,0.094,3.986,0.094
		c1.044,0,1.961,0,3.101-0.094c0,1.961,1.106,3.89,2.498,6.864l2.089,4.46c0.314,0.633,1.264,2.435,1.708,3.226
		c0.41-0.759,0.917-1.74,1.771-3.605l1.612-3.48c1.551-3.257,2.215-4.744,2.911-7.464c1.455,0.127,2.436,0.094,3.384,0.094
		c1.044,0,2.499-0.031,3.638-0.094c0.349,0.188,0.349,0.791,0.095,1.106l-0.917,0.158c-1.297,0.253-1.93,0.602-1.93,2.278
		c0,6.515,0.064,9.931,0.253,13.918c0.063,1.455,0.19,2.182,1.424,2.372l1.013,0.127c0.252,0.252,0.252,0.979-0.063,1.106
		c-1.455-0.063-2.814-0.096-4.365-0.096c-1.424,0-3.162,0.032-4.682,0.096c-0.38-0.158-0.411-0.887-0.095-1.106l0.948-0.127
		c1.455-0.286,1.455-0.57,1.455-2.499l-0.062-8.224v-3.607h-0.063c-2.341,5.061-4.87,10.344-6.959,15.69
		c-0.157,0.126-0.38,0.221-0.633,0.221c-0.284,0-0.633-0.063-0.822-0.19c-1.233-3.922-4.997-11.607-6.77-15.721h-0.062
		c-0.128,2.056-0.191,3.291-0.223,4.935c-0.032,2.057-0.062,5.22-0.062,7.117c0,1.581,0.188,1.992,1.455,2.214l1.232,0.191
		c0.253,0.22,0.19,0.948-0.062,1.106c-1.17-0.063-2.531-0.096-3.733-0.096c-1.012,0-2.309,0.032-3.574,0.096
		c-0.411-0.127-0.411-0.949-0.126-1.106l0.569-0.096c1.614-0.317,1.708-0.476,1.897-2.437c0.158-1.55,0.316-4.301,0.507-7.306
		c0.127-2.119,0.221-4.683,0.221-6.391c0-1.803-0.695-2.214-1.961-2.498L572.312,204.748z"/>
	<path clip-path="url(#SVGID_2_)" d="M609.987,211.959c0,0.887,0.032,0.948,0.886,0.948h2.183c1.646,0,1.994-0.22,2.341-1.738
		l0.158-0.791c0.222-0.254,1.013-0.254,1.171,0.031c-0.063,1.013-0.095,2.151-0.095,3.354s0.031,2.341,0.095,3.352
		c-0.158,0.285-0.949,0.317-1.171,0.032l-0.158-0.791c-0.347-1.518-0.695-1.771-2.341-1.771h-2.183c-0.854,0-0.886,0.032-0.886,0.98
		v3.765c0,1.455,0.127,2.468,0.507,3.005c0.411,0.569,1.013,0.822,3.321,0.822c2.752,0,3.827-0.094,5.567-3.669
		c0.253-0.348,1.043-0.221,1.17,0.159c-0.127,1.644-0.885,4.207-1.329,5.06c-1.675-0.062-4.713-0.095-7.306-0.095h-4.113
		c-1.518,0-3.067,0.032-5.44,0.095c-0.253-0.188-0.253-0.948,0-1.105l1.487-0.222c1.423-0.19,1.614-0.411,1.614-3.321v-11.799
		c0-2.879-0.191-3.101-1.614-3.354l-0.791-0.158c-0.285-0.189-0.253-0.918,0.063-1.106c1.486,0.062,3.036,0.094,4.555,0.094h6.706
		c2.024,0,3.828-0.031,4.238-0.094c0.031,0.506,0.254,2.783,0.411,4.903c-0.126,0.348-0.854,0.41-1.17,0.126
		c-0.349-1.107-0.791-2.057-1.202-2.499c-0.602-0.602-1.55-0.981-3.1-0.981h-2.531c-1.044,0-1.044,0.064-1.044,1.234V211.959z"/>
	<path clip-path="url(#SVGID_2_)" d="M629.631,225.118c-2.91,0-4.713-0.821-5.378-1.201c-0.601-0.695-1.012-2.974-1.012-5.124
		c0.222-0.411,0.95-0.443,1.203-0.096c0.632,2.057,2.751,4.967,5.439,4.967c2.341,0,3.416-1.613,3.416-3.194
		c0-2.563-2.403-4.081-4.302-5.03c-2.277-1.138-4.745-3.037-4.776-6.168c0-3.575,2.752-6.042,7.339-6.042
		c1.045,0,2.342,0.127,3.605,0.506c0.411,0.127,0.696,0.191,1.076,0.253c0.253,0.696,0.569,2.404,0.569,4.524
		c-0.158,0.379-0.949,0.411-1.234,0.094c-0.537-1.613-1.897-3.922-4.175-3.922c-2.088,0-3.227,1.361-3.227,2.942
		c0,1.455,1.297,2.783,2.878,3.605l2.088,1.107c1.961,1.044,4.46,2.879,4.46,6.357C637.602,222.588,634.407,225.118,629.631,225.118
		"/>
</g>
</svg>
